<svg version="1.1" viewBox="0.0 0.0 960.0 540.0" fill="none" stroke="none" stroke-linecap="square" stroke-miterlimit="10" xmlns:xlink="http://www.w3.org/1999/xlink" xmlns="http://www.w3.org/2000/svg"><clipPath id="p.0"><path d="m0 0l960.0 0l0 540.0l-960.0 0l0 -540.0z" clip-rule="nonzero"/></clipPath><g clip-path="url(#p.0)"><path fill="#ffffff" d="m0 0l960.0 0l0 540.0l-960.0 0z" fill-rule="evenodd"/><path fill="#000000" fill-opacity="0.0" d="m32.72441 125.32496l894.55115 0l0 107.527565l-894.55115 0z" fill-rule="evenodd"/><path fill="#000000" d="m289.843 71.85876l28.484375 0l39.359375 113.59376l-31.6875 0l-6.875 -22.234375l-30.25 0l-6.71875 22.234375l-31.82811 0l39.51561 -113.59376zm24.3125 70.54688l-10.078125 -35.187508l-10.5625 35.187508l20.640625 0zm52.970062 43.046875l0 -113.59376l48.953125 0q8.328125 0 15.359375 3.4375q7.046875 3.4375 12.078125 8.953125q5.046875 5.515625 7.921875 12.640625q2.875 7.125 2.875 14.328125q0 7.515625 -2.71875 14.640625q-2.71875 7.1093826 -7.59375 12.640633q-4.875 5.515625 -11.84375 8.796875q-6.953125 3.28125 -15.28125 3.28125l-18.5625 0l0 34.875l-31.1875 0zm31.1875 -62.078133l16.484375 0q2.875 0 5.359375 -2.640625q2.484375 -2.640625 2.484375 -9.515625q0 -7.046875 -2.890625 -9.609375q-2.875 -2.5625 -5.75 -2.5625l-15.6875 0l0 24.328125zm68.49255 62.078133l0 -113.59376l52.15625 0q8.3125 0 15.34375 3.4375q7.046875 3.4375 12.09375 8.953125q5.046875 5.515625 7.921875 12.640625q2.875 7.125 2.875 14.328125q0 9.921875 -4.328125 18.484383q-4.3125 8.546875 -11.984375 13.984375l24.0 41.765625l-35.203125 0l-20.0 -34.875l-11.6875 0l0 34.875l-31.1875 0zm31.1875 -62.078133l19.6875 0q2.875 0 5.359375 -3.203125q2.484375 -3.203125 2.484375 -8.953125q0 -5.921875 -2.890625 -9.046875q-2.875 -3.125 -5.75 -3.125l-18.890625 0l0 24.328125zm76.81262 62.078133l0 -113.59376l31.1875 0l0 113.59376l-31.1875 0zm50.71997 0l0 -113.59376l31.1875 0l0 86.39063l51.53125 0l0 27.203125l-82.71875 0z" fill-rule="nonzero"/><path fill="#000000" fill-opacity="0.0" d="m32.72441 232.74959l894.55115 0l0 78.047226l-894.55115 0z" fill-rule="evenodd"/><path fill="#000000" d="m251.37617 276.1968l0 -75.718735l32.64061 0q5.546875 0 10.234375 2.296875q4.703125 2.28125 8.0625 5.96875q3.359375 3.671875 5.28125 8.421875q1.921875 4.75 1.921875 9.546875q0 5.015625 -1.828125 9.765625q-1.8125 4.734375 -5.0625 8.421875q-3.25 3.671875 -7.890625 5.859375q-4.640625 2.1875 -10.1875 2.1875l-12.375 0l0 23.249985l-20.79686 0zm20.79686 -41.374985l11.0 0q1.90625 0 3.5625 -1.765625q1.65625 -1.765625 1.65625 -6.34375q0 -4.703125 -1.921875 -6.40625q-1.921875 -1.703125 -3.84375 -1.703125l-10.453125 0l0 16.21875zm78.712494 23.562485q3.640625 0 6.1875 -1.59375q2.5625 -1.6093597 4.15625 -4.2187347q1.609375 -2.609375 2.359375 -6.015625q0.75 -3.421875 0.75 -7.15625l0 -38.921875l20.796875 0l0 38.921875q0 7.890625 -2.03125 14.78125q-2.03125 6.8749847 -6.296875 11.89061q-4.265625 5.0 -10.71875 7.890625q-6.453125 2.875 -15.203125 2.875q-9.0625 0 -15.515625 -3.03125q-6.453125 -3.046875 -10.609375 -8.15625q-4.15625 -5.125 -6.078125 -11.89061q-1.921875 -6.78125 -1.921875 -14.359375l0 -38.921875l20.796875 0l0 38.921875q0 3.734375 0.75 7.203125q0.75 3.46875 2.34375 6.078125q1.609375 2.609375 4.109375 4.1562347q2.5 1.546875 6.125 1.546875zm42.558167 2.34375l35.421875 -42.124985l-33.8125 0l0 -18.125l57.796875 0l0 15.453125l-33.265625 42.14061l33.90625 0l0 18.125l-60.046875 0l0 -15.46875zm66.34021 0l35.421875 -42.124985l-33.8125 0l0 -18.125l57.796906 0l0 15.453125l-33.265656 42.14061l33.90628 0l0 18.125l-60.046906 0l0 -15.46875zm69.96524 15.46875l0 -75.718735l20.796936 0l0 57.593735l34.34375 0l0 18.125l-55.140686 0zm116.36273 -18.125l0 18.125l-53.96875 0l0 -75.718735l53.015625 0l0 18.125l-32.21875 0l0 10.671875l27.53125 0l0 16.84375l-27.53125 0l0 11.95311l33.171875 0zm55.58008 -32.85936q-3.203125 -1.921875 -6.625 -3.40625q-2.875 -1.28125 -6.453125 -2.40625q-3.5625 -1.125 -6.984375 -1.125q-2.765625 0 -4.421875 0.859375q-1.65625 0.859375 -1.65625 2.875q0 1.5 0.953125 2.46875q0.96875 0.953125 2.78125 1.75q1.8125 0.796875 4.421875 1.546875q2.625 0.75 5.921875 1.8125q5.234375 1.59375 9.4375 3.515625q4.21875 1.921875 7.203125 4.546875q2.984375 2.609375 4.578125 6.34375q1.609375 3.71875 1.609375 9.0625q0 6.8281097 -2.515625 11.468735q-2.5 4.625 -6.609375 7.40625q-4.09375 2.765625 -9.28125 4.0q-5.171875 1.21875 -10.390625 1.21875q-4.15625 0 -8.53125 -0.640625q-4.375 -0.625 -8.703125 -1.796875q-4.3125 -1.1875 -8.3125 -2.78125q-4.0 -1.59375 -7.40625 -3.625l8.953125 -18.23436q3.734375 2.34375 7.78125 4.15625q3.421875 1.59375 7.734375 2.8749847q4.328125 1.28125 8.796875 1.28125q3.421875 0 4.75 -0.90625q1.34375 -0.90625 1.34375 -2.4062347q0 -1.59375 -1.34375 -2.703125q-1.328125 -1.125 -3.671875 -1.984375q-2.34375 -0.859375 -5.390625 -1.703125q-3.046875 -0.859375 -6.453125 -2.03125q-5.015625 -1.703125 -8.640625 -3.671875q-3.625 -1.984375 -5.96875 -4.484375q-2.34375 -2.5 -3.46875 -5.703125q-1.125 -3.203125 -1.125 -7.359375q0 -6.296875 2.296875 -11.09375q2.296875 -4.796875 6.234375 -8.0q3.953125 -3.203125 9.015625 -4.84375q5.0625 -1.65625 10.71875 -1.65625q4.15625 0 8.109375 0.796875q3.953125 0.796875 7.625 2.03125q3.6875 1.21875 6.875 2.65625q3.203125 1.4375 5.765625 2.71875l-8.953125 17.171875z" fill-rule="nonzero"/><path fill="#000000" fill-opacity="0.0" d="m32.72441 360.2933l894.55115 0l0 107.52756l-894.55115 0z" fill-rule="evenodd"/><path fill="#000000" d="m251.30309 410.82086q0 -10.0 1.59375 -17.59375q1.609375 -7.609375 5.2031097 -13.703125q3.59375 -6.109375 9.296875 -10.90625q5.703125 -4.796875 14.109375 -9.390625q10.796875 -5.8125 17.09375 -9.3125q6.296875 -3.5 9.5 -5.6875q3.203125 -2.203125 4.09375 -3.703125q0.90625 -1.5 0.90625 -3.296875q0 -5.0 -3.203125 -7.40625q-3.203125 -2.40625 -8.796875 -2.40625q-6.59375 0 -12.5 3.40625q-5.90625 3.40625 -12.296875 11.0l-23.999985 -28.203125q3.7968597 -4.203125 9.79686 -7.703125q6.0 -3.5 13.296875 -6.0q7.296875 -2.5 15.5 -3.890625q8.203125 -1.40625 16.796875 -1.40625q23.0 0 34.90625 9.5q11.90625 9.5 11.90625 26.5q0 6.203125 -1.609375 11.0q-1.59375 4.796875 -4.296875 8.703125q-2.703125 3.90625 -6.5 7.109375q-3.796875 3.1875 -8.0 5.984375q-5.0 3.40625 -10.5 6.515625q-5.5 3.09375 -10.90625 6.890625l44.0 0l0 34.0l-105.39061 0zm228.00316 -58.59375q0 13.1875 -4.0 24.296875q-4.0 11.09375 -11.109375 19.203125q-7.09375 8.09375 -16.796875 12.59375q-9.703125 4.5 -21.09375 4.5q-11.40625 0 -21.109375 -4.5q-9.703125 -4.5 -16.796875 -12.59375q-7.09375 -8.109375 -11.09375 -19.203125q-4.0 -11.109375 -4.0 -24.296875q0 -13.203125 4.0 -24.296875q4.0 -11.109375 11.09375 -19.203125q7.09375 -8.109375 16.796875 -12.703125q9.703125 -4.609375 21.109375 -4.609375q11.390625 0 21.09375 4.609375q9.703125 4.59375 16.796875 12.703125q7.109375 8.09375 11.109375 19.203125q4.0 11.09375 4.0 24.296875zm-38.40625 0q0 -11.609375 -4.109375 -18.796875q-4.09375 -7.203125 -10.484375 -7.203125q-6.8125 0 -10.90625 7.203125q-4.09375 7.1875 -4.09375 18.796875q0 11.59375 4.09375 18.703125q4.09375 7.09375 10.90625 7.09375q6.390625 0 10.484375 -7.09375q4.109375 -7.109375 4.109375 -18.703125zm151.39377 24.59375l0 34.0l-92.59375 0l0 -34.0l28.40625 0l0 -39.796875q-1.8125 2.390625 -5.609375 4.703125q-3.796875 2.296875 -8.5 4.296875q-4.703125 2.0 -9.5 3.203125q-4.796875 1.1875 -8.59375 1.1875l0 -34.796875q2.796875 0 7.796875 -2.09375q5.0 -2.109375 10.0 -5.0q5.0 -2.90625 9.09375 -6.203125q4.109375 -3.296875 5.3125 -5.703125l38.796875 0l0 80.203125l25.390625 0zm10.212524 -30.203125q0 -10.390625 4.0 -19.59375q4.0 -9.203125 11.1875 -15.90625q7.203125 -6.703125 16.90625 -10.59375q9.703125 -3.90625 21.09375 -3.90625q12.8125 0 22.703125 4.703125q9.90625 4.703125 16.703125 13.703125q6.796875 9.0 10.390625 22.0q3.609375 13.0 3.609375 29.59375q0 17.609375 -3.90625 31.515625q-3.890625 13.890625 -11.296875 23.578125q-7.390625 9.703125 -18.0 14.90625q-10.59375 5.203125 -24.0 5.203125q-26.0 0 -45.203125 -19.203125l21.0 -24.390625q10.8125 10.796875 24.8125 10.796875q9.796875 0 15.484375 -5.890625q5.703125 -5.90625 6.109375 -16.71875q-7.59375 6.8125 -21.59375 6.8125q-10.8125 0 -19.90625 -3.5q-9.09375 -3.5 -15.796875 -9.796875q-6.703125 -6.3125 -10.5 -14.8125q-3.796875 -8.5 -3.796875 -18.5zm53.1875 -18.203125q-3.390625 0 -6.5 1.5q-3.09375 1.5 -5.390625 4.0q-2.296875 2.5 -3.703125 5.8125q-1.40625 3.296875 -1.40625 6.890625q0 7.0 5.0 11.90625q5.0 4.890625 12.0 4.890625q7.0 0 12.0 -4.890625q5.0 -4.90625 5.0 -11.90625q0 -3.59375 -1.40625 -6.890625q-1.390625 -3.3125 -3.6875 -5.8125q-2.296875 -2.5 -5.40625 -4.0q-3.09375 -1.5 -6.5 -1.5z" fill-rule="nonzero"/></g></svg>