<?xml version="1.0" encoding="utf-8" standalone="no"?>
<!DOCTYPE svg PUBLIC "-//W3C//DTD SVG 1.1//EN"
  "http://www.w3.org/Graphics/SVG/1.1/DTD/svg11.dtd">
<!-- Created with matplotlib (https://matplotlib.org/) -->
<svg height="345.6pt" version="1.1" viewBox="0 0 460.8 345.6" width="460.8pt" xmlns="http://www.w3.org/2000/svg" xmlns:xlink="http://www.w3.org/1999/xlink">
 <defs>
  <style type="text/css">
*{stroke-linecap:butt;stroke-linejoin:round;}
  </style>
 </defs>
 <g id="figure_1">
  <g id="patch_1">
   <path d="M 0 345.6 
L 460.8 345.6 
L 460.8 0 
L 0 0 
z
" style="fill:#ffffff;"/>
  </g>
  <g id="axes_1">
   <g id="patch_2">
    <path d="M 57.6 307.584 
L 414.72 307.584 
L 414.72 41.472 
L 57.6 41.472 
z
" style="fill:#ffffff;"/>
   </g>
   <g id="matplotlib.axis_1">
    <g id="xtick_1">
     <g id="line2d_1">
      <path clip-path="url(#p0b7bc50680)" d="M 73.832727 307.584 
L 73.832727 41.472 
" style="fill:none;stroke:#b0b0b0;stroke-linecap:square;stroke-width:0.8;"/>
     </g>
     <g id="line2d_2">
      <defs>
       <path d="M 0 0 
L 0 3.5 
" id="m0b21e57c92" style="stroke:#000000;stroke-width:0.8;"/>
      </defs>
      <g>
       <use style="stroke:#000000;stroke-width:0.8;" x="73.832727" xlink:href="#m0b21e57c92" y="307.584"/>
      </g>
     </g>
     <g id="text_1">
      <!-- $0.0$ -->
      <defs>
       <path d="M 42 31.84375 
C 42 37.96875 41.90625 48.421875 37.703125 56.453125 
C 34 63.484375 28.09375 66 22.90625 66 
C 18.09375 66 12 63.78125 8.203125 56.5625 
C 4.203125 49.015625 3.796875 39.671875 3.796875 31.84375 
C 3.796875 26.109375 3.90625 17.375 7 9.734375 
C 11.296875 -0.609375 19 -2 22.90625 -2 
C 27.5 -2 34.5 -0.109375 38.59375 9.4375 
C 41.59375 16.375 42 24.5 42 31.84375 
z
M 22.90625 -0.40625 
C 16.5 -0.40625 12.703125 5.125 11.296875 12.75 
C 10.203125 18.6875 10.203125 27.328125 10.203125 32.953125 
C 10.203125 40.6875 10.203125 47.109375 11.5 53.234375 
C 13.40625 61.78125 19 64.390625 22.90625 64.390625 
C 27 64.390625 32.296875 61.671875 34.203125 53.4375 
C 35.5 47.71875 35.59375 40.984375 35.59375 32.953125 
C 35.59375 26.421875 35.59375 18.375 34.40625 12.453125 
C 32.296875 1.5 26.40625 -0.40625 22.90625 -0.40625 
z
" id="CMR17-48"/>
       <path d="M 18.40625 4.796875 
C 18.40625 7.6875 16 9.6875 13.59375 9.6875 
C 10.703125 9.6875 8.703125 7.296875 8.703125 4.890625 
C 8.703125 2 11.09375 0 13.5 0 
C 16.40625 0 18.40625 2.390625 18.40625 4.796875 
z
" id="CMMI12-58"/>
      </defs>
      <g transform="translate(66.353906 322.88618)scale(0.12 -0.12)">
       <use transform="scale(0.996264)" xlink:href="#CMR17-48"/>
       <use transform="translate(45.690477 0)scale(0.996264)" xlink:href="#CMMI12-58"/>
       <use transform="translate(72.787654 0)scale(0.996264)" xlink:href="#CMR17-48"/>
      </g>
     </g>
    </g>
    <g id="xtick_2">
     <g id="line2d_3">
      <path clip-path="url(#p0b7bc50680)" d="M 138.763636 307.584 
L 138.763636 41.472 
" style="fill:none;stroke:#b0b0b0;stroke-linecap:square;stroke-width:0.8;"/>
     </g>
     <g id="line2d_4">
      <g>
       <use style="stroke:#000000;stroke-width:0.8;" x="138.763636" xlink:href="#m0b21e57c92" y="307.584"/>
      </g>
     </g>
     <g id="text_2">
      <!-- $0.2$ -->
      <defs>
       <path d="M 41.703125 15.46875 
L 39.90625 15.46875 
C 38.90625 8.390625 38.09375 7.1875 37.703125 6.59375 
C 37.203125 5.796875 30 5.796875 28.59375 5.796875 
L 9.40625 5.796875 
C 13 9.6875 20 16.765625 28.5 24.9375 
C 34.59375 30.71875 41.703125 37.5 41.703125 47.390625 
C 41.703125 59.1875 32.296875 66 21.796875 66 
C 10.796875 66 4.09375 56.296875 4.09375 47.296875 
C 4.09375 43.390625 7 42.890625 8.203125 42.890625 
C 9.203125 42.890625 12.203125 43.484375 12.203125 46.984375 
C 12.203125 50.09375 9.59375 51 8.203125 51 
C 7.59375 51 7 50.890625 6.59375 50.6875 
C 8.5 59.1875 14.296875 63.390625 20.40625 63.390625 
C 29.09375 63.390625 34.796875 56.5 34.796875 47.390625 
C 34.796875 38.703125 29.703125 31.21875 24 24.734375 
L 4.09375 2.296875 
L 4.09375 0 
L 39.296875 0 
z
" id="CMR17-50"/>
      </defs>
      <g transform="translate(131.284815 322.88618)scale(0.12 -0.12)">
       <use transform="scale(0.996264)" xlink:href="#CMR17-48"/>
       <use transform="translate(45.690477 0)scale(0.996264)" xlink:href="#CMMI12-58"/>
       <use transform="translate(72.787654 0)scale(0.996264)" xlink:href="#CMR17-50"/>
      </g>
     </g>
    </g>
    <g id="xtick_3">
     <g id="line2d_5">
      <path clip-path="url(#p0b7bc50680)" d="M 203.694545 307.584 
L 203.694545 41.472 
" style="fill:none;stroke:#b0b0b0;stroke-linecap:square;stroke-width:0.8;"/>
     </g>
     <g id="line2d_6">
      <g>
       <use style="stroke:#000000;stroke-width:0.8;" x="203.694545" xlink:href="#m0b21e57c92" y="307.584"/>
      </g>
     </g>
     <g id="text_3">
      <!-- $0.4$ -->
      <defs>
       <path d="M 33.59375 64.796875 
C 33.59375 66.890625 33.5 67 31.703125 67 
L 2 19.59375 
L 2 17 
L 27.796875 17 
L 27.796875 7.1875 
C 27.796875 3.59375 27.59375 2.59375 20.59375 2.59375 
L 18.703125 2.59375 
L 18.703125 0 
C 21.90625 0.1875 27.296875 0.1875 30.703125 0.1875 
C 34.09375 0.1875 39.5 0.1875 42.703125 0 
L 42.703125 2.59375 
L 40.796875 2.59375 
C 33.796875 2.59375 33.59375 3.59375 33.59375 7.1875 
L 33.59375 17 
L 43.796875 17 
L 43.796875 19.59375 
L 33.59375 19.59375 
z
M 28.09375 58.171875 
L 28.09375 19.59375 
L 4 19.59375 
z
" id="CMR17-52"/>
      </defs>
      <g transform="translate(196.215725 322.88618)scale(0.12 -0.12)">
       <use transform="scale(0.996264)" xlink:href="#CMR17-48"/>
       <use transform="translate(45.690477 0)scale(0.996264)" xlink:href="#CMMI12-58"/>
       <use transform="translate(72.787654 0)scale(0.996264)" xlink:href="#CMR17-52"/>
      </g>
     </g>
    </g>
    <g id="xtick_4">
     <g id="line2d_7">
      <path clip-path="url(#p0b7bc50680)" d="M 268.625455 307.584 
L 268.625455 41.472 
" style="fill:none;stroke:#b0b0b0;stroke-linecap:square;stroke-width:0.8;"/>
     </g>
     <g id="line2d_8">
      <g>
       <use style="stroke:#000000;stroke-width:0.8;" x="268.625455" xlink:href="#m0b21e57c92" y="307.584"/>
      </g>
     </g>
     <g id="text_4">
      <!-- $0.6$ -->
      <defs>
       <path d="M 10.59375 34.34375 
C 10.59375 58 21.796875 63.6875 28.296875 63.6875 
C 30.40625 63.6875 35.5 63.265625 37.5 59.09375 
C 35.90625 59.09375 32.90625 59.09375 32.90625 55.59375 
C 32.90625 52.890625 35.09375 52 36.5 52 
C 37.40625 52 40.09375 52.390625 40.09375 55.796875 
C 40.09375 62.296875 35.09375 66 28.203125 66 
C 16.296875 66 3.796875 53.296875 3.796875 31.421875 
C 3.796875 4.015625 15.09375 -2 23.09375 -2 
C 32.796875 -2 42 6.734375 42 20.234375 
C 42 32.828125 33.90625 42 23.703125 42 
C 17.59375 42 13.09375 37.96875 10.59375 30.921875 
z
M 23.09375 0.390625 
C 10.796875 0.390625 10.796875 18.9375 10.796875 22.65625 
C 10.796875 29.90625 14.203125 40.390625 23.5 40.390625 
C 25.203125 40.390625 30.09375 40.390625 33.40625 33.4375 
C 35.203125 29.515625 35.203125 25.375 35.203125 20.34375 
C 35.203125 14.90625 35.203125 10.875 33.09375 6.84375 
C 30.90625 2.703125 27.703125 0.390625 23.09375 0.390625 
z
" id="CMR17-54"/>
      </defs>
      <g transform="translate(261.146634 322.88618)scale(0.12 -0.12)">
       <use transform="scale(0.996264)" xlink:href="#CMR17-48"/>
       <use transform="translate(45.690477 0)scale(0.996264)" xlink:href="#CMMI12-58"/>
       <use transform="translate(72.787654 0)scale(0.996264)" xlink:href="#CMR17-54"/>
      </g>
     </g>
    </g>
    <g id="xtick_5">
     <g id="line2d_9">
      <path clip-path="url(#p0b7bc50680)" d="M 333.556364 307.584 
L 333.556364 41.472 
" style="fill:none;stroke:#b0b0b0;stroke-linecap:square;stroke-width:0.8;"/>
     </g>
     <g id="line2d_10">
      <g>
       <use style="stroke:#000000;stroke-width:0.8;" x="333.556364" xlink:href="#m0b21e57c92" y="307.584"/>
      </g>
     </g>
     <g id="text_5">
      <!-- $0.8$ -->
      <defs>
       <path d="M 27.203125 35.765625 
C 33.5 38.96875 39.90625 43.796875 39.90625 51.53125 
C 39.90625 60.6875 31.09375 66 23 66 
C 13.90625 66 5.90625 59.375 5.90625 50.234375 
C 5.90625 47.71875 6.5 43.390625 10.40625 39.578125 
C 11.40625 38.578125 15.59375 35.5625 18.296875 33.65625 
C 13.796875 31.34375 3.296875 25.8125 3.296875 14.765625 
C 3.296875 4.40625 13.09375 -2 22.796875 -2 
C 33.5 -2 42.5 5.71875 42.5 15.96875 
C 42.5 25.109375 36.40625 29.328125 32.40625 32.046875 
z
M 14.09375 44.609375 
C 13.296875 45.109375 9.296875 48.21875 9.296875 52.9375 
C 9.296875 59.078125 15.59375 63.6875 22.796875 63.6875 
C 30.703125 63.6875 36.5 58.0625 36.5 51.53125 
C 36.5 42.1875 26.09375 36.859375 25.59375 36.859375 
C 25.5 36.859375 25.40625 36.859375 24.59375 37.46875 
z
M 32.5 24 
C 34 22.90625 38.796875 19.578125 38.796875 13.453125 
C 38.796875 6.015625 31.40625 0.390625 23 0.390625 
C 13.90625 0.390625 7 6.921875 7 14.859375 
C 7 22.796875 13.09375 29.4375 20 32.546875 
z
" id="CMR17-56"/>
      </defs>
      <g transform="translate(326.077543 322.88618)scale(0.12 -0.12)">
       <use transform="scale(0.996264)" xlink:href="#CMR17-48"/>
       <use transform="translate(45.690477 0)scale(0.996264)" xlink:href="#CMMI12-58"/>
       <use transform="translate(72.787654 0)scale(0.996264)" xlink:href="#CMR17-56"/>
      </g>
     </g>
    </g>
    <g id="xtick_6">
     <g id="line2d_11">
      <path clip-path="url(#p0b7bc50680)" d="M 398.487273 307.584 
L 398.487273 41.472 
" style="fill:none;stroke:#b0b0b0;stroke-linecap:square;stroke-width:0.8;"/>
     </g>
     <g id="line2d_12">
      <g>
       <use style="stroke:#000000;stroke-width:0.8;" x="398.487273" xlink:href="#m0b21e57c92" y="307.584"/>
      </g>
     </g>
     <g id="text_6">
      <!-- $1.0$ -->
      <defs>
       <path d="M 26.59375 63.796875 
C 26.59375 65.890625 26.5 66 25.09375 66 
C 21.203125 61.359375 15.296875 59.890625 9.703125 59.6875 
C 9.40625 59.6875 8.90625 59.6875 8.796875 59.5 
C 8.703125 59.296875 8.703125 59.09375 8.703125 57 
C 11.796875 57 17 57.59375 21 59.984375 
L 21 7.296875 
C 21 3.796875 20.796875 2.59375 12.203125 2.59375 
L 9.203125 2.59375 
L 9.203125 0 
C 14 0.09375 19 0.1875 23.796875 0.1875 
C 28.59375 0.1875 33.59375 0.09375 38.40625 0 
L 38.40625 2.59375 
L 35.40625 2.59375 
C 26.796875 2.59375 26.59375 3.6875 26.59375 7.296875 
z
" id="CMR17-49"/>
      </defs>
      <g transform="translate(391.008452 322.88618)scale(0.12 -0.12)">
       <use transform="scale(0.996264)" xlink:href="#CMR17-49"/>
       <use transform="translate(45.690477 0)scale(0.996264)" xlink:href="#CMMI12-58"/>
       <use transform="translate(72.787654 0)scale(0.996264)" xlink:href="#CMR17-48"/>
      </g>
     </g>
    </g>
    <g id="text_7">
     <!-- $\displaystyle \delta$ -->
     <defs>
      <path d="M 26 43.671875 
C 13.203125 40.578125 4 27.3125 4 15.640625 
C 4 4.984375 11.203125 -1 19.203125 -1 
C 31 -1 39 15.15625 39 28.40625 
C 39 37.390625 34.796875 42.859375 32.296875 46.15625 
C 28.59375 50.84375 22.59375 58.515625 22.59375 63.3125 
C 22.59375 65 23.90625 68 28.296875 68 
C 31.40625 68 33.296875 66.890625 36.296875 65.203125 
C 37.203125 64.59375 39.5 63.3125 40.796875 63.3125 
C 42.90625 63.3125 44.40625 65.40625 44.40625 67 
C 44.40625 68.890625 42.90625 69.1875 39.40625 70 
C 34.703125 71 33.296875 71 31.59375 71 
C 29.90625 71 20.09375 71 20.09375 60.8125 
C 20.09375 55.921875 22.59375 50.25 26 43.671875 
z
M 27.09375 41.765625 
C 30.90625 33.890625 32.40625 30.90625 32.40625 24.421875 
C 32.40625 16.640625 28.203125 1 19.296875 1 
C 15.40625 1 9.796875 3.578125 9.796875 12.859375 
C 9.796875 19.34375 13.5 38.1875 27.09375 41.765625 
z
" id="CMMI12-14"/>
     </defs>
     <g transform="translate(233.135621 338.896652)scale(0.14 -0.14)">
      <use transform="scale(0.996264)" xlink:href="#CMMI12-14"/>
     </g>
    </g>
   </g>
   <g id="matplotlib.axis_2">
    <g id="ytick_1">
     <g id="line2d_13">
      <path clip-path="url(#p0b7bc50680)" d="M 57.6 295.488 
L 414.72 295.488 
" style="fill:none;stroke:#b0b0b0;stroke-linecap:square;stroke-width:0.8;"/>
     </g>
     <g id="line2d_14">
      <defs>
       <path d="M 0 0 
L -3.5 0 
" id="me70f55398f" style="stroke:#000000;stroke-width:0.8;"/>
      </defs>
      <g>
       <use style="stroke:#000000;stroke-width:0.8;" x="57.6" xlink:href="#me70f55398f" y="295.488"/>
      </g>
     </g>
     <g id="text_8">
      <!-- $0.0$ -->
      <g transform="translate(35.642358 299.63909)scale(0.12 -0.12)">
       <use transform="scale(0.996264)" xlink:href="#CMR17-48"/>
       <use transform="translate(45.690477 0)scale(0.996264)" xlink:href="#CMMI12-58"/>
       <use transform="translate(72.787654 0)scale(0.996264)" xlink:href="#CMR17-48"/>
      </g>
     </g>
    </g>
    <g id="ytick_2">
     <g id="line2d_15">
      <path clip-path="url(#p0b7bc50680)" d="M 57.6 247.104 
L 414.72 247.104 
" style="fill:none;stroke:#b0b0b0;stroke-linecap:square;stroke-width:0.8;"/>
     </g>
     <g id="line2d_16">
      <g>
       <use style="stroke:#000000;stroke-width:0.8;" x="57.6" xlink:href="#me70f55398f" y="247.104"/>
      </g>
     </g>
     <g id="text_9">
      <!-- $0.2$ -->
      <g transform="translate(35.642358 251.25509)scale(0.12 -0.12)">
       <use transform="scale(0.996264)" xlink:href="#CMR17-48"/>
       <use transform="translate(45.690477 0)scale(0.996264)" xlink:href="#CMMI12-58"/>
       <use transform="translate(72.787654 0)scale(0.996264)" xlink:href="#CMR17-50"/>
      </g>
     </g>
    </g>
    <g id="ytick_3">
     <g id="line2d_17">
      <path clip-path="url(#p0b7bc50680)" d="M 57.6 198.72 
L 414.72 198.72 
" style="fill:none;stroke:#b0b0b0;stroke-linecap:square;stroke-width:0.8;"/>
     </g>
     <g id="line2d_18">
      <g>
       <use style="stroke:#000000;stroke-width:0.8;" x="57.6" xlink:href="#me70f55398f" y="198.72"/>
      </g>
     </g>
     <g id="text_10">
      <!-- $0.4$ -->
      <g transform="translate(35.642358 202.87109)scale(0.12 -0.12)">
       <use transform="scale(0.996264)" xlink:href="#CMR17-48"/>
       <use transform="translate(45.690477 0)scale(0.996264)" xlink:href="#CMMI12-58"/>
       <use transform="translate(72.787654 0)scale(0.996264)" xlink:href="#CMR17-52"/>
      </g>
     </g>
    </g>
    <g id="ytick_4">
     <g id="line2d_19">
      <path clip-path="url(#p0b7bc50680)" d="M 57.6 150.336 
L 414.72 150.336 
" style="fill:none;stroke:#b0b0b0;stroke-linecap:square;stroke-width:0.8;"/>
     </g>
     <g id="line2d_20">
      <g>
       <use style="stroke:#000000;stroke-width:0.8;" x="57.6" xlink:href="#me70f55398f" y="150.336"/>
      </g>
     </g>
     <g id="text_11">
      <!-- $0.6$ -->
      <g transform="translate(35.642358 154.48709)scale(0.12 -0.12)">
       <use transform="scale(0.996264)" xlink:href="#CMR17-48"/>
       <use transform="translate(45.690477 0)scale(0.996264)" xlink:href="#CMMI12-58"/>
       <use transform="translate(72.787654 0)scale(0.996264)" xlink:href="#CMR17-54"/>
      </g>
     </g>
    </g>
    <g id="ytick_5">
     <g id="line2d_21">
      <path clip-path="url(#p0b7bc50680)" d="M 57.6 101.952 
L 414.72 101.952 
" style="fill:none;stroke:#b0b0b0;stroke-linecap:square;stroke-width:0.8;"/>
     </g>
     <g id="line2d_22">
      <g>
       <use style="stroke:#000000;stroke-width:0.8;" x="57.6" xlink:href="#me70f55398f" y="101.952"/>
      </g>
     </g>
     <g id="text_12">
      <!-- $0.8$ -->
      <g transform="translate(35.642358 106.10309)scale(0.12 -0.12)">
       <use transform="scale(0.996264)" xlink:href="#CMR17-48"/>
       <use transform="translate(45.690477 0)scale(0.996264)" xlink:href="#CMMI12-58"/>
       <use transform="translate(72.787654 0)scale(0.996264)" xlink:href="#CMR17-56"/>
      </g>
     </g>
    </g>
    <g id="ytick_6">
     <g id="line2d_23">
      <path clip-path="url(#p0b7bc50680)" d="M 57.6 53.568 
L 414.72 53.568 
" style="fill:none;stroke:#b0b0b0;stroke-linecap:square;stroke-width:0.8;"/>
     </g>
     <g id="line2d_24">
      <g>
       <use style="stroke:#000000;stroke-width:0.8;" x="57.6" xlink:href="#me70f55398f" y="53.568"/>
      </g>
     </g>
     <g id="text_13">
      <!-- $1.0$ -->
      <g transform="translate(35.642358 57.71909)scale(0.12 -0.12)">
       <use transform="scale(0.996264)" xlink:href="#CMR17-49"/>
       <use transform="translate(45.690477 0)scale(0.996264)" xlink:href="#CMMI12-58"/>
       <use transform="translate(72.787654 0)scale(0.996264)" xlink:href="#CMR17-48"/>
      </g>
     </g>
    </g>
    <g id="text_14">
     <!-- $\displaystyle R(\delta)$ -->
     <defs>
      <path d="M 36.796875 61.203125 
C 37.703125 64.890625 38.09375 65.09375 42 65.09375 
L 49.203125 65.09375 
C 57.796875 65.09375 64.203125 62.5 64.203125 54.734375 
C 64.203125 49.640625 61.59375 35 41.5 35 
L 30.203125 35 
z
M 50.703125 33.796875 
C 63.09375 36.484375 72.796875 44.46875 72.796875 53.03125 
C 72.796875 60.8125 64.90625 68 51 68 
L 23.90625 68 
C 21.90625 68 21 68 21 66.09375 
C 21 65.09375 21.703125 65.09375 23.59375 65.09375 
C 29.59375 65.09375 29.59375 64.296875 29.59375 63.203125 
C 29.59375 63 29.59375 62.40625 29.203125 60.90625 
L 15.703125 7.421875 
C 14.796875 3.953125 14.59375 2.96875 7.703125 2.96875 
C 5.40625 2.96875 4.703125 2.96875 4.703125 1.078125 
C 4.703125 0.09375 5.796875 0.09375 6.09375 0.09375 
C 7.90625 0.09375 10 0.296875 11.90625 0.296875 
L 23.703125 0.296875 
C 25.5 0.296875 27.59375 0.09375 29.40625 0.09375 
C 30.203125 0.09375 31.296875 0.09375 31.296875 1.96875 
C 31.296875 2.96875 30.40625 2.96875 28.90625 2.96875 
C 22.796875 2.96875 22.796875 3.765625 22.796875 4.75 
C 22.796875 4.84375 22.796875 5.546875 23 6.328125 
L 29.703125 33 
L 41.703125 33 
C 51.203125 33 53 27.046875 53 23.78125 
C 53 22.28125 52 18.421875 51.296875 15.84375 
C 50.203125 11.296875 49.90625 10.203125 49.90625 8.3125 
C 49.90625 1.28125 55.703125 -2 62.40625 -2 
C 70.5 -2 74 7.828125 74 9.203125 
C 74 9.90625 73.5 10.203125 72.90625 10.203125 
C 72.09375 10.203125 71.90625 9.609375 71.703125 8.8125 
C 69.296875 1.78125 65.203125 0 62.703125 0 
C 60.203125 0 58.59375 1.078125 58.59375 5.546875 
C 58.59375 7.921875 59.796875 16.9375 59.90625 17.4375 
C 60.40625 21.09375 60.40625 21.5 60.40625 22.28125 
C 60.40625 29.515625 54.5 32.59375 50.703125 33.796875 
z
" id="CMMI12-82"/>
      <path d="M 30.59375 -24.40625 
C 30.59375 -24.3125 30.59375 -24.109375 30.296875 -23.8125 
C 25.703125 -19.109375 13.40625 -6.296875 13.40625 24.9375 
C 13.40625 56.171875 25.5 68.875 30.40625 73.890625 
C 30.40625 73.984375 30.59375 74.1875 30.59375 74.484375 
C 30.59375 74.796875 30.296875 75 29.90625 75 
C 28.796875 75 20.296875 67.578125 15.40625 56.5625 
C 10.40625 45.453125 9 34.65625 9 25.046875 
C 9 17.828125 9.703125 5.625 15.703125 -7.296875 
C 20.5 -17.703125 28.703125 -25 29.90625 -25 
C 30.40625 -25 30.59375 -24.8125 30.59375 -24.40625 
z
" id="CMR17-40"/>
      <path d="M 26.296875 24.9375 
C 26.296875 32.140625 25.59375 44.359375 19.59375 57.265625 
C 14.796875 67.6875 6.59375 75 5.40625 75 
C 5.09375 75 4.703125 74.890625 4.703125 74.390625 
C 4.703125 74.1875 4.796875 74.09375 4.90625 73.890625 
C 9.703125 68.875 21.90625 56.171875 21.90625 25.046875 
C 21.90625 -6.1875 9.796875 -18.90625 4.90625 -23.90625 
C 4.796875 -24.109375 4.703125 -24.203125 4.703125 -24.40625 
C 4.703125 -24.90625 5.09375 -25 5.40625 -25 
C 6.5 -25 15 -17.609375 19.90625 -6.59375 
C 24.90625 4.515625 26.296875 15.328125 26.296875 24.9375 
z
" id="CMR17-41"/>
     </defs>
     <g transform="translate(28.155434 188.379902)rotate(-90)scale(0.14 -0.14)">
      <use transform="scale(0.996264)" xlink:href="#CMMI12-82"/>
      <use transform="translate(75.070962 0)scale(0.996264)" xlink:href="#CMR17-40"/>
      <use transform="translate(110.35173 0)scale(0.996264)" xlink:href="#CMMI12-14"/>
      <use transform="translate(157.293116 0)scale(0.996264)" xlink:href="#CMR17-41"/>
     </g>
    </g>
   </g>
   <g id="line2d_25">
    <path clip-path="url(#p0b7bc50680)" d="M 73.832727 56.765655 
L 78.219951 78.918951 
L 82.607174 96.934606 
L 86.994398 113.010825 
L 91.381622 127.624743 
L 95.768845 141.034428 
L 100.156069 153.409703 
L 104.543292 164.874197 
L 108.930516 175.523675 
L 113.31774 185.435489 
L 117.704963 194.673991 
L 122.092187 203.293898 
L 126.47941 211.342488 
L 130.866634 218.861107 
L 135.253857 225.886237 
L 139.641081 232.450273 
L 144.028305 238.582108 
L 148.415528 244.307579 
L 152.802752 249.64981 
L 157.189975 254.629496 
L 161.577199 259.265124 
L 165.964423 263.573164 
L 170.351646 267.568223 
L 174.73887 271.263184 
L 179.126093 274.669331 
L 183.513317 277.796455 
L 187.900541 280.652955 
L 192.287764 283.245937 
L 196.674988 285.581297 
L 201.062211 287.663813 
L 205.449435 289.49722 
L 209.836658 291.084301 
L 214.223882 292.426952 
L 218.611106 293.52627 
L 222.998329 294.382618 
L 227.385553 294.995701 
L 231.772776 295.364631 
L 236.16 295.488 
L 240.547224 295.488 
L 244.934447 295.488 
L 249.321671 295.488 
L 253.708894 295.488 
L 258.096118 295.488 
L 262.483342 295.488 
L 266.870565 295.488 
L 271.257789 295.488 
L 275.645012 295.488 
L 280.032236 295.488 
L 284.419459 295.488 
L 288.806683 295.488 
L 293.193907 295.488 
L 297.58113 295.488 
L 301.968354 295.488 
L 306.355577 295.488 
L 310.742801 295.488 
L 315.130025 295.488 
L 319.517248 295.488 
L 323.904472 295.488 
L 328.291695 295.488 
L 332.678919 295.488 
L 337.066143 295.488 
L 341.453366 295.488 
L 345.84059 295.488 
L 350.227813 295.488 
L 354.615037 295.488 
L 359.00226 295.488 
L 363.389484 295.488 
L 367.776708 295.488 
L 372.163931 295.488 
L 376.551155 295.488 
L 380.938378 295.488 
L 385.325602 295.488 
L 389.712826 295.488 
L 394.100049 295.488 
L 398.487273 295.488 
" style="fill:none;"/>
    <defs>
     <path d="M 0 0.75 
C 0.198902 0.75 0.389685 0.670975 0.53033 0.53033 
C 0.670975 0.389685 0.75 0.198902 0.75 0 
C 0.75 -0.198902 0.670975 -0.389685 0.53033 -0.53033 
C 0.389685 -0.670975 0.198902 -0.75 0 -0.75 
C -0.198902 -0.75 -0.389685 -0.670975 -0.53033 -0.53033 
C -0.670975 -0.389685 -0.75 -0.198902 -0.75 0 
C -0.75 0.198902 -0.670975 0.389685 -0.53033 0.53033 
C -0.389685 0.670975 -0.198902 0.75 0 0.75 
z
" id="m70cff5d6e3" style="stroke:#0000ff;"/>
    </defs>
    <g clip-path="url(#p0b7bc50680)">
     <use style="fill:#0000ff;stroke:#0000ff;" x="73.832727" xlink:href="#m70cff5d6e3" y="56.765655"/>
     <use style="fill:#0000ff;stroke:#0000ff;" x="78.219951" xlink:href="#m70cff5d6e3" y="78.918951"/>
     <use style="fill:#0000ff;stroke:#0000ff;" x="82.607174" xlink:href="#m70cff5d6e3" y="96.934606"/>
     <use style="fill:#0000ff;stroke:#0000ff;" x="86.994398" xlink:href="#m70cff5d6e3" y="113.010825"/>
     <use style="fill:#0000ff;stroke:#0000ff;" x="91.381622" xlink:href="#m70cff5d6e3" y="127.624743"/>
     <use style="fill:#0000ff;stroke:#0000ff;" x="95.768845" xlink:href="#m70cff5d6e3" y="141.034428"/>
     <use style="fill:#0000ff;stroke:#0000ff;" x="100.156069" xlink:href="#m70cff5d6e3" y="153.409703"/>
     <use style="fill:#0000ff;stroke:#0000ff;" x="104.543292" xlink:href="#m70cff5d6e3" y="164.874197"/>
     <use style="fill:#0000ff;stroke:#0000ff;" x="108.930516" xlink:href="#m70cff5d6e3" y="175.523675"/>
     <use style="fill:#0000ff;stroke:#0000ff;" x="113.31774" xlink:href="#m70cff5d6e3" y="185.435489"/>
     <use style="fill:#0000ff;stroke:#0000ff;" x="117.704963" xlink:href="#m70cff5d6e3" y="194.673991"/>
     <use style="fill:#0000ff;stroke:#0000ff;" x="122.092187" xlink:href="#m70cff5d6e3" y="203.293898"/>
     <use style="fill:#0000ff;stroke:#0000ff;" x="126.47941" xlink:href="#m70cff5d6e3" y="211.342488"/>
     <use style="fill:#0000ff;stroke:#0000ff;" x="130.866634" xlink:href="#m70cff5d6e3" y="218.861107"/>
     <use style="fill:#0000ff;stroke:#0000ff;" x="135.253857" xlink:href="#m70cff5d6e3" y="225.886237"/>
     <use style="fill:#0000ff;stroke:#0000ff;" x="139.641081" xlink:href="#m70cff5d6e3" y="232.450273"/>
     <use style="fill:#0000ff;stroke:#0000ff;" x="144.028305" xlink:href="#m70cff5d6e3" y="238.582108"/>
     <use style="fill:#0000ff;stroke:#0000ff;" x="148.415528" xlink:href="#m70cff5d6e3" y="244.307579"/>
     <use style="fill:#0000ff;stroke:#0000ff;" x="152.802752" xlink:href="#m70cff5d6e3" y="249.64981"/>
     <use style="fill:#0000ff;stroke:#0000ff;" x="157.189975" xlink:href="#m70cff5d6e3" y="254.629496"/>
     <use style="fill:#0000ff;stroke:#0000ff;" x="161.577199" xlink:href="#m70cff5d6e3" y="259.265124"/>
     <use style="fill:#0000ff;stroke:#0000ff;" x="165.964423" xlink:href="#m70cff5d6e3" y="263.573164"/>
     <use style="fill:#0000ff;stroke:#0000ff;" x="170.351646" xlink:href="#m70cff5d6e3" y="267.568223"/>
     <use style="fill:#0000ff;stroke:#0000ff;" x="174.73887" xlink:href="#m70cff5d6e3" y="271.263184"/>
     <use style="fill:#0000ff;stroke:#0000ff;" x="179.126093" xlink:href="#m70cff5d6e3" y="274.669331"/>
     <use style="fill:#0000ff;stroke:#0000ff;" x="183.513317" xlink:href="#m70cff5d6e3" y="277.796455"/>
     <use style="fill:#0000ff;stroke:#0000ff;" x="187.900541" xlink:href="#m70cff5d6e3" y="280.652955"/>
     <use style="fill:#0000ff;stroke:#0000ff;" x="192.287764" xlink:href="#m70cff5d6e3" y="283.245937"/>
     <use style="fill:#0000ff;stroke:#0000ff;" x="196.674988" xlink:href="#m70cff5d6e3" y="285.581297"/>
     <use style="fill:#0000ff;stroke:#0000ff;" x="201.062211" xlink:href="#m70cff5d6e3" y="287.663813"/>
     <use style="fill:#0000ff;stroke:#0000ff;" x="205.449435" xlink:href="#m70cff5d6e3" y="289.49722"/>
     <use style="fill:#0000ff;stroke:#0000ff;" x="209.836658" xlink:href="#m70cff5d6e3" y="291.084301"/>
     <use style="fill:#0000ff;stroke:#0000ff;" x="214.223882" xlink:href="#m70cff5d6e3" y="292.426952"/>
     <use style="fill:#0000ff;stroke:#0000ff;" x="218.611106" xlink:href="#m70cff5d6e3" y="293.52627"/>
     <use style="fill:#0000ff;stroke:#0000ff;" x="222.998329" xlink:href="#m70cff5d6e3" y="294.382618"/>
     <use style="fill:#0000ff;stroke:#0000ff;" x="227.385553" xlink:href="#m70cff5d6e3" y="294.995701"/>
     <use style="fill:#0000ff;stroke:#0000ff;" x="231.772776" xlink:href="#m70cff5d6e3" y="295.364631"/>
     <use style="fill:#0000ff;stroke:#0000ff;" x="236.16" xlink:href="#m70cff5d6e3" y="295.488"/>
     <use style="fill:#0000ff;stroke:#0000ff;" x="240.547224" xlink:href="#m70cff5d6e3" y="295.488"/>
     <use style="fill:#0000ff;stroke:#0000ff;" x="244.934447" xlink:href="#m70cff5d6e3" y="295.488"/>
     <use style="fill:#0000ff;stroke:#0000ff;" x="249.321671" xlink:href="#m70cff5d6e3" y="295.488"/>
     <use style="fill:#0000ff;stroke:#0000ff;" x="253.708894" xlink:href="#m70cff5d6e3" y="295.488"/>
     <use style="fill:#0000ff;stroke:#0000ff;" x="258.096118" xlink:href="#m70cff5d6e3" y="295.488"/>
     <use style="fill:#0000ff;stroke:#0000ff;" x="262.483342" xlink:href="#m70cff5d6e3" y="295.488"/>
     <use style="fill:#0000ff;stroke:#0000ff;" x="266.870565" xlink:href="#m70cff5d6e3" y="295.488"/>
     <use style="fill:#0000ff;stroke:#0000ff;" x="271.257789" xlink:href="#m70cff5d6e3" y="295.488"/>
     <use style="fill:#0000ff;stroke:#0000ff;" x="275.645012" xlink:href="#m70cff5d6e3" y="295.488"/>
     <use style="fill:#0000ff;stroke:#0000ff;" x="280.032236" xlink:href="#m70cff5d6e3" y="295.488"/>
     <use style="fill:#0000ff;stroke:#0000ff;" x="284.419459" xlink:href="#m70cff5d6e3" y="295.488"/>
     <use style="fill:#0000ff;stroke:#0000ff;" x="288.806683" xlink:href="#m70cff5d6e3" y="295.488"/>
     <use style="fill:#0000ff;stroke:#0000ff;" x="293.193907" xlink:href="#m70cff5d6e3" y="295.488"/>
     <use style="fill:#0000ff;stroke:#0000ff;" x="297.58113" xlink:href="#m70cff5d6e3" y="295.488"/>
     <use style="fill:#0000ff;stroke:#0000ff;" x="301.968354" xlink:href="#m70cff5d6e3" y="295.488"/>
     <use style="fill:#0000ff;stroke:#0000ff;" x="306.355577" xlink:href="#m70cff5d6e3" y="295.488"/>
     <use style="fill:#0000ff;stroke:#0000ff;" x="310.742801" xlink:href="#m70cff5d6e3" y="295.488"/>
     <use style="fill:#0000ff;stroke:#0000ff;" x="315.130025" xlink:href="#m70cff5d6e3" y="295.488"/>
     <use style="fill:#0000ff;stroke:#0000ff;" x="319.517248" xlink:href="#m70cff5d6e3" y="295.488"/>
     <use style="fill:#0000ff;stroke:#0000ff;" x="323.904472" xlink:href="#m70cff5d6e3" y="295.488"/>
     <use style="fill:#0000ff;stroke:#0000ff;" x="328.291695" xlink:href="#m70cff5d6e3" y="295.488"/>
     <use style="fill:#0000ff;stroke:#0000ff;" x="332.678919" xlink:href="#m70cff5d6e3" y="295.488"/>
     <use style="fill:#0000ff;stroke:#0000ff;" x="337.066143" xlink:href="#m70cff5d6e3" y="295.488"/>
     <use style="fill:#0000ff;stroke:#0000ff;" x="341.453366" xlink:href="#m70cff5d6e3" y="295.488"/>
     <use style="fill:#0000ff;stroke:#0000ff;" x="345.84059" xlink:href="#m70cff5d6e3" y="295.488"/>
     <use style="fill:#0000ff;stroke:#0000ff;" x="350.227813" xlink:href="#m70cff5d6e3" y="295.488"/>
     <use style="fill:#0000ff;stroke:#0000ff;" x="354.615037" xlink:href="#m70cff5d6e3" y="295.488"/>
     <use style="fill:#0000ff;stroke:#0000ff;" x="359.00226" xlink:href="#m70cff5d6e3" y="295.488"/>
     <use style="fill:#0000ff;stroke:#0000ff;" x="363.389484" xlink:href="#m70cff5d6e3" y="295.488"/>
     <use style="fill:#0000ff;stroke:#0000ff;" x="367.776708" xlink:href="#m70cff5d6e3" y="295.488"/>
     <use style="fill:#0000ff;stroke:#0000ff;" x="372.163931" xlink:href="#m70cff5d6e3" y="295.488"/>
     <use style="fill:#0000ff;stroke:#0000ff;" x="376.551155" xlink:href="#m70cff5d6e3" y="295.488"/>
     <use style="fill:#0000ff;stroke:#0000ff;" x="380.938378" xlink:href="#m70cff5d6e3" y="295.488"/>
     <use style="fill:#0000ff;stroke:#0000ff;" x="385.325602" xlink:href="#m70cff5d6e3" y="295.488"/>
     <use style="fill:#0000ff;stroke:#0000ff;" x="389.712826" xlink:href="#m70cff5d6e3" y="295.488"/>
     <use style="fill:#0000ff;stroke:#0000ff;" x="394.100049" xlink:href="#m70cff5d6e3" y="295.488"/>
     <use style="fill:#0000ff;stroke:#0000ff;" x="398.487273" xlink:href="#m70cff5d6e3" y="295.488"/>
    </g>
   </g>
   <g id="line2d_26">
    <path clip-path="url(#p0b7bc50680)" d="M 73.832727 56.765655 
L 78.219951 68.834869 
L 82.607174 78.918951 
L 86.994398 88.216681 
L 91.381622 96.934606 
L 95.768845 105.177335 
L 100.156069 113.010825 
L 104.543292 120.481585 
L 108.930516 127.624743 
L 113.31774 134.468103 
L 117.704963 141.034428 
L 122.092187 147.342834 
L 126.47941 153.409703 
L 130.866634 159.249297 
L 135.253857 164.874197 
L 139.641081 170.295624 
L 144.028305 175.523675 
L 148.415528 180.56751 
L 152.802752 185.435489 
L 157.189975 190.135288 
L 161.577199 194.673991 
L 165.964423 199.05816 
L 170.351646 203.293898 
L 174.73887 207.386899 
L 179.126093 211.342488 
L 183.513317 215.16566 
L 187.900541 218.861107 
L 192.287764 222.433245 
L 196.674988 225.886237 
L 201.062211 229.22401 
L 205.449435 232.450273 
L 209.836658 235.568534 
L 214.223882 238.582108 
L 218.611106 241.494134 
L 222.998329 244.307579 
L 227.385553 247.025251 
L 231.772776 249.64981 
L 236.16 252.183766 
L 240.547224 254.629496 
L 244.934447 256.989243 
L 249.321671 259.265124 
L 253.708894 261.459138 
L 258.096118 263.573164 
L 262.483342 265.608972 
L 266.870565 267.568223 
L 271.257789 269.452474 
L 275.645012 271.263184 
L 280.032236 273.001714 
L 284.419459 274.669331 
L 288.806683 276.267214 
L 293.193907 277.796455 
L 297.58113 279.25806 
L 301.968354 280.652955 
L 306.355577 281.98199 
L 310.742801 283.245937 
L 315.130025 284.445496 
L 319.517248 285.581297 
L 323.904472 286.653904 
L 328.291695 287.663813 
L 332.678919 288.61146 
L 337.066143 289.49722 
L 341.453366 290.321413 
L 345.84059 291.084301 
L 350.227813 291.786094 
L 354.615037 292.426952 
L 359.00226 293.006989 
L 363.389484 293.52627 
L 367.776708 293.98482 
L 372.163931 294.382618 
L 376.551155 294.71961 
L 380.938378 294.995701 
L 385.325602 295.210762 
L 389.712826 295.364631 
L 394.100049 295.457118 
L 398.487273 295.488 
" style="fill:none;"/>
    <defs>
     <path d="M 0 -1.5 
L -1.5 1.5 
L 1.5 1.5 
z
" id="mc4f9427705" style="stroke:#008000;stroke-linejoin:miter;"/>
    </defs>
    <g clip-path="url(#p0b7bc50680)">
     <use style="fill:#008000;stroke:#008000;stroke-linejoin:miter;" x="73.832727" xlink:href="#mc4f9427705" y="56.765655"/>
     <use style="fill:#008000;stroke:#008000;stroke-linejoin:miter;" x="78.219951" xlink:href="#mc4f9427705" y="68.834869"/>
     <use style="fill:#008000;stroke:#008000;stroke-linejoin:miter;" x="82.607174" xlink:href="#mc4f9427705" y="78.918951"/>
     <use style="fill:#008000;stroke:#008000;stroke-linejoin:miter;" x="86.994398" xlink:href="#mc4f9427705" y="88.216681"/>
     <use style="fill:#008000;stroke:#008000;stroke-linejoin:miter;" x="91.381622" xlink:href="#mc4f9427705" y="96.934606"/>
     <use style="fill:#008000;stroke:#008000;stroke-linejoin:miter;" x="95.768845" xlink:href="#mc4f9427705" y="105.177335"/>
     <use style="fill:#008000;stroke:#008000;stroke-linejoin:miter;" x="100.156069" xlink:href="#mc4f9427705" y="113.010825"/>
     <use style="fill:#008000;stroke:#008000;stroke-linejoin:miter;" x="104.543292" xlink:href="#mc4f9427705" y="120.481585"/>
     <use style="fill:#008000;stroke:#008000;stroke-linejoin:miter;" x="108.930516" xlink:href="#mc4f9427705" y="127.624743"/>
     <use style="fill:#008000;stroke:#008000;stroke-linejoin:miter;" x="113.31774" xlink:href="#mc4f9427705" y="134.468103"/>
     <use style="fill:#008000;stroke:#008000;stroke-linejoin:miter;" x="117.704963" xlink:href="#mc4f9427705" y="141.034428"/>
     <use style="fill:#008000;stroke:#008000;stroke-linejoin:miter;" x="122.092187" xlink:href="#mc4f9427705" y="147.342834"/>
     <use style="fill:#008000;stroke:#008000;stroke-linejoin:miter;" x="126.47941" xlink:href="#mc4f9427705" y="153.409703"/>
     <use style="fill:#008000;stroke:#008000;stroke-linejoin:miter;" x="130.866634" xlink:href="#mc4f9427705" y="159.249297"/>
     <use style="fill:#008000;stroke:#008000;stroke-linejoin:miter;" x="135.253857" xlink:href="#mc4f9427705" y="164.874197"/>
     <use style="fill:#008000;stroke:#008000;stroke-linejoin:miter;" x="139.641081" xlink:href="#mc4f9427705" y="170.295624"/>
     <use style="fill:#008000;stroke:#008000;stroke-linejoin:miter;" x="144.028305" xlink:href="#mc4f9427705" y="175.523675"/>
     <use style="fill:#008000;stroke:#008000;stroke-linejoin:miter;" x="148.415528" xlink:href="#mc4f9427705" y="180.56751"/>
     <use style="fill:#008000;stroke:#008000;stroke-linejoin:miter;" x="152.802752" xlink:href="#mc4f9427705" y="185.435489"/>
     <use style="fill:#008000;stroke:#008000;stroke-linejoin:miter;" x="157.189975" xlink:href="#mc4f9427705" y="190.135288"/>
     <use style="fill:#008000;stroke:#008000;stroke-linejoin:miter;" x="161.577199" xlink:href="#mc4f9427705" y="194.673991"/>
     <use style="fill:#008000;stroke:#008000;stroke-linejoin:miter;" x="165.964423" xlink:href="#mc4f9427705" y="199.05816"/>
     <use style="fill:#008000;stroke:#008000;stroke-linejoin:miter;" x="170.351646" xlink:href="#mc4f9427705" y="203.293898"/>
     <use style="fill:#008000;stroke:#008000;stroke-linejoin:miter;" x="174.73887" xlink:href="#mc4f9427705" y="207.386899"/>
     <use style="fill:#008000;stroke:#008000;stroke-linejoin:miter;" x="179.126093" xlink:href="#mc4f9427705" y="211.342488"/>
     <use style="fill:#008000;stroke:#008000;stroke-linejoin:miter;" x="183.513317" xlink:href="#mc4f9427705" y="215.16566"/>
     <use style="fill:#008000;stroke:#008000;stroke-linejoin:miter;" x="187.900541" xlink:href="#mc4f9427705" y="218.861107"/>
     <use style="fill:#008000;stroke:#008000;stroke-linejoin:miter;" x="192.287764" xlink:href="#mc4f9427705" y="222.433245"/>
     <use style="fill:#008000;stroke:#008000;stroke-linejoin:miter;" x="196.674988" xlink:href="#mc4f9427705" y="225.886237"/>
     <use style="fill:#008000;stroke:#008000;stroke-linejoin:miter;" x="201.062211" xlink:href="#mc4f9427705" y="229.22401"/>
     <use style="fill:#008000;stroke:#008000;stroke-linejoin:miter;" x="205.449435" xlink:href="#mc4f9427705" y="232.450273"/>
     <use style="fill:#008000;stroke:#008000;stroke-linejoin:miter;" x="209.836658" xlink:href="#mc4f9427705" y="235.568534"/>
     <use style="fill:#008000;stroke:#008000;stroke-linejoin:miter;" x="214.223882" xlink:href="#mc4f9427705" y="238.582108"/>
     <use style="fill:#008000;stroke:#008000;stroke-linejoin:miter;" x="218.611106" xlink:href="#mc4f9427705" y="241.494134"/>
     <use style="fill:#008000;stroke:#008000;stroke-linejoin:miter;" x="222.998329" xlink:href="#mc4f9427705" y="244.307579"/>
     <use style="fill:#008000;stroke:#008000;stroke-linejoin:miter;" x="227.385553" xlink:href="#mc4f9427705" y="247.025251"/>
     <use style="fill:#008000;stroke:#008000;stroke-linejoin:miter;" x="231.772776" xlink:href="#mc4f9427705" y="249.64981"/>
     <use style="fill:#008000;stroke:#008000;stroke-linejoin:miter;" x="236.16" xlink:href="#mc4f9427705" y="252.183766"/>
     <use style="fill:#008000;stroke:#008000;stroke-linejoin:miter;" x="240.547224" xlink:href="#mc4f9427705" y="254.629496"/>
     <use style="fill:#008000;stroke:#008000;stroke-linejoin:miter;" x="244.934447" xlink:href="#mc4f9427705" y="256.989243"/>
     <use style="fill:#008000;stroke:#008000;stroke-linejoin:miter;" x="249.321671" xlink:href="#mc4f9427705" y="259.265124"/>
     <use style="fill:#008000;stroke:#008000;stroke-linejoin:miter;" x="253.708894" xlink:href="#mc4f9427705" y="261.459138"/>
     <use style="fill:#008000;stroke:#008000;stroke-linejoin:miter;" x="258.096118" xlink:href="#mc4f9427705" y="263.573164"/>
     <use style="fill:#008000;stroke:#008000;stroke-linejoin:miter;" x="262.483342" xlink:href="#mc4f9427705" y="265.608972"/>
     <use style="fill:#008000;stroke:#008000;stroke-linejoin:miter;" x="266.870565" xlink:href="#mc4f9427705" y="267.568223"/>
     <use style="fill:#008000;stroke:#008000;stroke-linejoin:miter;" x="271.257789" xlink:href="#mc4f9427705" y="269.452474"/>
     <use style="fill:#008000;stroke:#008000;stroke-linejoin:miter;" x="275.645012" xlink:href="#mc4f9427705" y="271.263184"/>
     <use style="fill:#008000;stroke:#008000;stroke-linejoin:miter;" x="280.032236" xlink:href="#mc4f9427705" y="273.001714"/>
     <use style="fill:#008000;stroke:#008000;stroke-linejoin:miter;" x="284.419459" xlink:href="#mc4f9427705" y="274.669331"/>
     <use style="fill:#008000;stroke:#008000;stroke-linejoin:miter;" x="288.806683" xlink:href="#mc4f9427705" y="276.267214"/>
     <use style="fill:#008000;stroke:#008000;stroke-linejoin:miter;" x="293.193907" xlink:href="#mc4f9427705" y="277.796455"/>
     <use style="fill:#008000;stroke:#008000;stroke-linejoin:miter;" x="297.58113" xlink:href="#mc4f9427705" y="279.25806"/>
     <use style="fill:#008000;stroke:#008000;stroke-linejoin:miter;" x="301.968354" xlink:href="#mc4f9427705" y="280.652955"/>
     <use style="fill:#008000;stroke:#008000;stroke-linejoin:miter;" x="306.355577" xlink:href="#mc4f9427705" y="281.98199"/>
     <use style="fill:#008000;stroke:#008000;stroke-linejoin:miter;" x="310.742801" xlink:href="#mc4f9427705" y="283.245937"/>
     <use style="fill:#008000;stroke:#008000;stroke-linejoin:miter;" x="315.130025" xlink:href="#mc4f9427705" y="284.445496"/>
     <use style="fill:#008000;stroke:#008000;stroke-linejoin:miter;" x="319.517248" xlink:href="#mc4f9427705" y="285.581297"/>
     <use style="fill:#008000;stroke:#008000;stroke-linejoin:miter;" x="323.904472" xlink:href="#mc4f9427705" y="286.653904"/>
     <use style="fill:#008000;stroke:#008000;stroke-linejoin:miter;" x="328.291695" xlink:href="#mc4f9427705" y="287.663813"/>
     <use style="fill:#008000;stroke:#008000;stroke-linejoin:miter;" x="332.678919" xlink:href="#mc4f9427705" y="288.61146"/>
     <use style="fill:#008000;stroke:#008000;stroke-linejoin:miter;" x="337.066143" xlink:href="#mc4f9427705" y="289.49722"/>
     <use style="fill:#008000;stroke:#008000;stroke-linejoin:miter;" x="341.453366" xlink:href="#mc4f9427705" y="290.321413"/>
     <use style="fill:#008000;stroke:#008000;stroke-linejoin:miter;" x="345.84059" xlink:href="#mc4f9427705" y="291.084301"/>
     <use style="fill:#008000;stroke:#008000;stroke-linejoin:miter;" x="350.227813" xlink:href="#mc4f9427705" y="291.786094"/>
     <use style="fill:#008000;stroke:#008000;stroke-linejoin:miter;" x="354.615037" xlink:href="#mc4f9427705" y="292.426952"/>
     <use style="fill:#008000;stroke:#008000;stroke-linejoin:miter;" x="359.00226" xlink:href="#mc4f9427705" y="293.006989"/>
     <use style="fill:#008000;stroke:#008000;stroke-linejoin:miter;" x="363.389484" xlink:href="#mc4f9427705" y="293.52627"/>
     <use style="fill:#008000;stroke:#008000;stroke-linejoin:miter;" x="367.776708" xlink:href="#mc4f9427705" y="293.98482"/>
     <use style="fill:#008000;stroke:#008000;stroke-linejoin:miter;" x="372.163931" xlink:href="#mc4f9427705" y="294.382618"/>
     <use style="fill:#008000;stroke:#008000;stroke-linejoin:miter;" x="376.551155" xlink:href="#mc4f9427705" y="294.71961"/>
     <use style="fill:#008000;stroke:#008000;stroke-linejoin:miter;" x="380.938378" xlink:href="#mc4f9427705" y="294.995701"/>
     <use style="fill:#008000;stroke:#008000;stroke-linejoin:miter;" x="385.325602" xlink:href="#mc4f9427705" y="295.210762"/>
     <use style="fill:#008000;stroke:#008000;stroke-linejoin:miter;" x="389.712826" xlink:href="#mc4f9427705" y="295.364631"/>
     <use style="fill:#008000;stroke:#008000;stroke-linejoin:miter;" x="394.100049" xlink:href="#mc4f9427705" y="295.457118"/>
     <use style="fill:#008000;stroke:#008000;stroke-linejoin:miter;" x="398.487273" xlink:href="#mc4f9427705" y="295.488"/>
    </g>
   </g>
   <g id="line2d_27">
    <path clip-path="url(#p0b7bc50680)" d="M 73.832727 53.568 
L 78.219951 56.837189 
L 82.607174 60.106378 
L 86.994398 63.375568 
L 91.381622 66.644757 
L 95.768845 69.913946 
L 100.156069 73.183135 
L 104.543292 76.452324 
L 108.930516 79.721514 
L 113.31774 82.990703 
L 117.704963 86.259892 
L 122.092187 89.529081 
L 126.47941 92.79827 
L 130.866634 96.067459 
L 135.253857 99.336649 
L 139.641081 102.605838 
L 144.028305 105.875027 
L 148.415528 109.144216 
L 152.802752 112.413405 
L 157.189975 115.682595 
L 161.577199 118.951784 
L 165.964423 122.220973 
L 170.351646 125.490162 
L 174.73887 128.759351 
L 179.126093 132.028541 
L 183.513317 135.29773 
L 187.900541 138.566919 
L 192.287764 141.836108 
L 196.674988 145.105297 
L 201.062211 148.374486 
L 205.449435 151.643676 
L 209.836658 154.912865 
L 214.223882 158.182054 
L 218.611106 161.451243 
L 222.998329 164.720432 
L 227.385553 167.989622 
L 231.772776 171.258811 
L 236.16 174.528 
L 240.547224 177.797189 
L 244.934447 181.066378 
L 249.321671 184.335568 
L 253.708894 187.604757 
L 258.096118 190.873946 
L 262.483342 194.143135 
L 266.870565 197.412324 
L 271.257789 200.681514 
L 275.645012 203.950703 
L 280.032236 207.219892 
L 284.419459 210.489081 
L 288.806683 213.75827 
L 293.193907 217.027459 
L 297.58113 220.296649 
L 301.968354 223.565838 
L 306.355577 226.835027 
L 310.742801 230.104216 
L 315.130025 233.373405 
L 319.517248 236.642595 
L 323.904472 239.911784 
L 328.291695 243.180973 
L 332.678919 246.450162 
L 337.066143 249.719351 
L 341.453366 252.988541 
L 345.84059 256.25773 
L 350.227813 259.526919 
L 354.615037 262.796108 
L 359.00226 266.065297 
L 363.389484 269.334486 
L 367.776708 272.603676 
L 372.163931 275.872865 
L 376.551155 279.142054 
L 380.938378 282.411243 
L 385.325602 285.680432 
L 389.712826 288.949622 
L 394.100049 292.218811 
L 398.487273 295.488 
" style="fill:none;stroke:#000000;stroke-dasharray:3.7,1.6;stroke-dashoffset:0;"/>
   </g>
   <g id="line2d_28">
    <path clip-path="url(#p0b7bc50680)" d="M 73.832727 56.765655 
L 78.219951 68.907539 
L 82.607174 79.186515 
L 86.994398 88.785289 
L 91.381622 97.899992 
L 95.768845 106.627143 
L 100.156069 115.025983 
L 104.543292 123.137241 
L 108.930516 130.990954 
L 113.31774 138.610375 
L 117.704963 146.014154 
L 122.092187 153.217667 
L 126.47941 160.233873 
L 130.866634 167.073899 
L 135.253857 173.747451 
L 139.641081 180.263114 
L 144.028305 186.628577 
L 148.415528 192.850805 
L 152.802752 198.936181 
L 157.189975 204.890611 
L 161.577199 210.719616 
L 165.964423 216.428413 
L 170.351646 222.021975 
L 174.73887 227.505097 
L 179.126093 232.882443 
L 183.513317 238.158607 
L 187.900541 243.338156 
L 192.287764 248.425688 
L 196.674988 253.425891 
L 201.062211 258.343611 
L 205.449435 263.183935 
L 209.836658 267.952304 
L 214.223882 272.65467 
L 218.611106 277.297736 
L 222.998329 281.889384 
L 227.385553 286.439512 
L 231.772776 290.962248 
L 236.16 295.488 
" style="fill:none;"/>
    <defs>
     <path d="M -0 1.5 
L 1.5 -1.5 
L -1.5 -1.5 
z
" id="m2bd6b4df6c" style="stroke:#000000;stroke-linejoin:miter;"/>
    </defs>
    <g clip-path="url(#p0b7bc50680)">
     <use style="stroke:#000000;stroke-linejoin:miter;" x="73.832727" xlink:href="#m2bd6b4df6c" y="56.765655"/>
     <use style="stroke:#000000;stroke-linejoin:miter;" x="78.219951" xlink:href="#m2bd6b4df6c" y="68.907539"/>
     <use style="stroke:#000000;stroke-linejoin:miter;" x="82.607174" xlink:href="#m2bd6b4df6c" y="79.186515"/>
     <use style="stroke:#000000;stroke-linejoin:miter;" x="86.994398" xlink:href="#m2bd6b4df6c" y="88.785289"/>
     <use style="stroke:#000000;stroke-linejoin:miter;" x="91.381622" xlink:href="#m2bd6b4df6c" y="97.899992"/>
     <use style="stroke:#000000;stroke-linejoin:miter;" x="95.768845" xlink:href="#m2bd6b4df6c" y="106.627143"/>
     <use style="stroke:#000000;stroke-linejoin:miter;" x="100.156069" xlink:href="#m2bd6b4df6c" y="115.025983"/>
     <use style="stroke:#000000;stroke-linejoin:miter;" x="104.543292" xlink:href="#m2bd6b4df6c" y="123.137241"/>
     <use style="stroke:#000000;stroke-linejoin:miter;" x="108.930516" xlink:href="#m2bd6b4df6c" y="130.990954"/>
     <use style="stroke:#000000;stroke-linejoin:miter;" x="113.31774" xlink:href="#m2bd6b4df6c" y="138.610375"/>
     <use style="stroke:#000000;stroke-linejoin:miter;" x="117.704963" xlink:href="#m2bd6b4df6c" y="146.014154"/>
     <use style="stroke:#000000;stroke-linejoin:miter;" x="122.092187" xlink:href="#m2bd6b4df6c" y="153.217667"/>
     <use style="stroke:#000000;stroke-linejoin:miter;" x="126.47941" xlink:href="#m2bd6b4df6c" y="160.233873"/>
     <use style="stroke:#000000;stroke-linejoin:miter;" x="130.866634" xlink:href="#m2bd6b4df6c" y="167.073899"/>
     <use style="stroke:#000000;stroke-linejoin:miter;" x="135.253857" xlink:href="#m2bd6b4df6c" y="173.747451"/>
     <use style="stroke:#000000;stroke-linejoin:miter;" x="139.641081" xlink:href="#m2bd6b4df6c" y="180.263114"/>
     <use style="stroke:#000000;stroke-linejoin:miter;" x="144.028305" xlink:href="#m2bd6b4df6c" y="186.628577"/>
     <use style="stroke:#000000;stroke-linejoin:miter;" x="148.415528" xlink:href="#m2bd6b4df6c" y="192.850805"/>
     <use style="stroke:#000000;stroke-linejoin:miter;" x="152.802752" xlink:href="#m2bd6b4df6c" y="198.936181"/>
     <use style="stroke:#000000;stroke-linejoin:miter;" x="157.189975" xlink:href="#m2bd6b4df6c" y="204.890611"/>
     <use style="stroke:#000000;stroke-linejoin:miter;" x="161.577199" xlink:href="#m2bd6b4df6c" y="210.719616"/>
     <use style="stroke:#000000;stroke-linejoin:miter;" x="165.964423" xlink:href="#m2bd6b4df6c" y="216.428413"/>
     <use style="stroke:#000000;stroke-linejoin:miter;" x="170.351646" xlink:href="#m2bd6b4df6c" y="222.021975"/>
     <use style="stroke:#000000;stroke-linejoin:miter;" x="174.73887" xlink:href="#m2bd6b4df6c" y="227.505097"/>
     <use style="stroke:#000000;stroke-linejoin:miter;" x="179.126093" xlink:href="#m2bd6b4df6c" y="232.882443"/>
     <use style="stroke:#000000;stroke-linejoin:miter;" x="183.513317" xlink:href="#m2bd6b4df6c" y="238.158607"/>
     <use style="stroke:#000000;stroke-linejoin:miter;" x="187.900541" xlink:href="#m2bd6b4df6c" y="243.338156"/>
     <use style="stroke:#000000;stroke-linejoin:miter;" x="192.287764" xlink:href="#m2bd6b4df6c" y="248.425688"/>
     <use style="stroke:#000000;stroke-linejoin:miter;" x="196.674988" xlink:href="#m2bd6b4df6c" y="253.425891"/>
     <use style="stroke:#000000;stroke-linejoin:miter;" x="201.062211" xlink:href="#m2bd6b4df6c" y="258.343611"/>
     <use style="stroke:#000000;stroke-linejoin:miter;" x="205.449435" xlink:href="#m2bd6b4df6c" y="263.183935"/>
     <use style="stroke:#000000;stroke-linejoin:miter;" x="209.836658" xlink:href="#m2bd6b4df6c" y="267.952304"/>
     <use style="stroke:#000000;stroke-linejoin:miter;" x="214.223882" xlink:href="#m2bd6b4df6c" y="272.65467"/>
     <use style="stroke:#000000;stroke-linejoin:miter;" x="218.611106" xlink:href="#m2bd6b4df6c" y="277.297736"/>
     <use style="stroke:#000000;stroke-linejoin:miter;" x="222.998329" xlink:href="#m2bd6b4df6c" y="281.889384"/>
     <use style="stroke:#000000;stroke-linejoin:miter;" x="227.385553" xlink:href="#m2bd6b4df6c" y="286.439512"/>
     <use style="stroke:#000000;stroke-linejoin:miter;" x="231.772776" xlink:href="#m2bd6b4df6c" y="290.962248"/>
     <use style="stroke:#000000;stroke-linejoin:miter;" x="236.16" xlink:href="#m2bd6b4df6c" y="295.488"/>
    </g>
   </g>
   <g id="patch_3">
    <path d="M 57.6 307.584 
L 57.6 41.472 
" style="fill:none;stroke:#000000;stroke-linecap:square;stroke-linejoin:miter;stroke-width:0.8;"/>
   </g>
   <g id="patch_4">
    <path d="M 414.72 307.584 
L 414.72 41.472 
" style="fill:none;stroke:#000000;stroke-linecap:square;stroke-linejoin:miter;stroke-width:0.8;"/>
   </g>
   <g id="patch_5">
    <path d="M 57.6 307.584 
L 414.72 307.584 
" style="fill:none;stroke:#000000;stroke-linecap:square;stroke-linejoin:miter;stroke-width:0.8;"/>
   </g>
   <g id="patch_6">
    <path d="M 57.6 41.472 
L 414.72 41.472 
" style="fill:none;stroke:#000000;stroke-linecap:square;stroke-linejoin:miter;stroke-width:0.8;"/>
   </g>
   <g id="legend_1">
    <g id="patch_7">
     <path d="M 262.076461 119.07639 
L 407.72 119.07639 
Q 409.72 119.07639 409.72 117.07639 
L 409.72 48.472 
Q 409.72 46.472 407.72 46.472 
L 262.076461 46.472 
Q 260.076461 46.472 260.076461 48.472 
L 260.076461 117.07639 
Q 260.076461 119.07639 262.076461 119.07639 
z
" style="fill:#ffffff;opacity:0.8;stroke:#cccccc;stroke-linejoin:miter;"/>
    </g>
    <g id="text_15">
     <!-- Binary Hamming -->
     <defs>
      <path d="M 5.203125 68 
L 5.203125 65.390625 
C 12.09375 65.390625 13.203125 65.390625 13.203125 60.890625 
L 13.203125 7.046875 
C 13.203125 2.59375 12.09375 2.59375 5.203125 2.59375 
L 5.203125 0 
L 39.59375 0 
C 52.40625 0 60.703125 9.03125 60.703125 18.046875 
C 60.703125 26.96875 52.5 34.59375 41.796875 35.296875 
C 51.40625 37.1875 58.09375 43.59375 58.09375 51.1875 
C 58.09375 59.5 49.90625 68 37 68 
z
M 19.5 36 
L 19.5 61.5 
C 19.5 64.890625 19.703125 65.390625 23.703125 65.390625 
L 36.5 65.390625 
C 46.40625 65.390625 50.796875 57.390625 50.796875 51.1875 
C 50.796875 43.59375 44.703125 36 33.90625 36 
z
M 23.703125 2.59375 
C 19.703125 2.59375 19.5 3.09375 19.5 6.453125 
L 19.5 34.390625 
L 38 34.390625 
C 48.296875 34.390625 53.296875 25.375 53.296875 18.140625 
C 53.296875 10.90625 47.59375 2.59375 36.703125 2.59375 
z
" id="CMR17-66"/>
      <path d="M 15.5 61.890625 
C 15.5 64.09375 13.703125 66 11.40625 66 
C 9.203125 66 7.296875 64.1875 7.296875 61.890625 
C 7.296875 59.6875 9.09375 57.796875 11.40625 57.796875 
C 13.59375 57.796875 15.5 59.59375 15.5 61.890625 
z
M 3.796875 42.890625 
L 3.796875 40.296875 
C 9.40625 40.296875 10.203125 39.6875 10.203125 34.859375 
L 10.203125 6.921875 
C 10.203125 3.09375 9.796875 2.59375 3.40625 2.59375 
L 3.40625 0 
C 5.796875 0.1875 10.09375 0.1875 12.59375 0.1875 
C 15 0.1875 19.09375 0.1875 21.40625 0 
L 21.40625 2.59375 
C 15.5 2.59375 15.296875 3.203125 15.296875 6.8125 
L 15.296875 44 
z
" id="CMR17-105"/>
      <path d="M 41.5 30.53125 
C 41.5 35.65625 40.5 44 28.703125 44 
C 20.796875 44 16.703125 37.875 15.203125 33.84375 
L 15.09375 33.84375 
L 15.09375 44 
L 3.296875 42.890625 
L 3.296875 40.28125 
C 9.203125 40.28125 10.09375 39.6875 10.09375 34.859375 
L 10.09375 6.921875 
C 10.09375 3.09375 9.703125 2.59375 3.296875 2.59375 
L 3.296875 0 
C 5.703125 0.1875 10.09375 0.1875 12.703125 0.1875 
C 15.296875 0.1875 19.796875 0.1875 22.203125 0 
L 22.203125 2.59375 
C 15.796875 2.59375 15.40625 3 15.40625 6.921875 
L 15.40625 26.21875 
C 15.40625 35.453125 21 42.390625 28 42.390625 
C 35.40625 42.390625 36.203125 35.765625 36.203125 30.9375 
L 36.203125 6.921875 
C 36.203125 3.09375 35.796875 2.59375 29.40625 2.59375 
L 29.40625 0 
C 31.796875 0.1875 36.203125 0.1875 38.796875 0.1875 
C 41.40625 0.1875 45.90625 0.1875 48.296875 0 
L 48.296875 2.59375 
C 41.90625 2.59375 41.5 3 41.5 6.921875 
z
" id="CMR17-110"/>
      <path d="M 36 25.875 
C 36 32 36 35.546875 31.796875 39.59375 
C 28.09375 42.984375 23.796875 44 20.40625 44 
C 12.5 44 6.796875 37.625 6.796875 30.890625 
C 6.796875 27.1875 9.796875 27 10.40625 27 
C 11.703125 27 14 27.796875 14 30.59375 
C 14 33.09375 12.09375 34.1875 10.40625 34.1875 
C 10 34.1875 9.5 34.09375 9.203125 34 
C 11.296875 40.53125 16.703125 42.390625 20.203125 42.390625 
C 25.203125 42.390625 30.703125 37.828125 30.703125 29.296875 
L 30.703125 25.5 
C 24.796875 25.296875 17.703125 24.5 12.09375 21.453125 
C 5.796875 17.921875 4 12.84375 4 9 
C 4 1.203125 13 -1 18.296875 -1 
C 23.796875 -1 28.90625 2.109375 31.09375 7.890625 
C 31.296875 3.421875 34.09375 -0.609375 38.5 -0.609375 
C 40.59375 -0.609375 45.90625 0.796875 45.90625 8.796875 
L 45.90625 14.46875 
L 44.09375 14.46875 
L 44.09375 8.703125 
C 44.09375 2.515625 41.40625 1.703125 40.09375 1.703125 
C 36 1.703125 36 6.96875 36 11.4375 
z
M 30.703125 13.859375 
C 30.703125 5.046875 24.5 0.59375 19 0.59375 
C 14 0.59375 10.09375 4.34375 10.09375 9 
C 10.09375 12.046875 11.40625 17.40625 17.203125 20.65625 
C 22 23.390625 27.5 23.796875 30.703125 24 
z
" id="CMR17-97"/>
      <path d="M 15 23.703125 
C 15 33.34375 19.09375 42.390625 26.59375 42.390625 
C 27.296875 42.390625 28 42.296875 28.703125 41.984375 
C 28.703125 41.984375 26.5 41.28125 26.5 38.671875 
C 26.5 36.265625 28.40625 35.265625 29.90625 35.265625 
C 31.09375 35.265625 33.296875 35.96875 33.296875 38.78125 
C 33.296875 41.984375 30.09375 44 26.703125 44 
C 19.09375 44 15.796875 36.5625 14.796875 33.046875 
L 14.703125 33.046875 
L 14.703125 44 
L 3.09375 42.890625 
L 3.09375 40.28125 
C 9 40.28125 9.90625 39.6875 9.90625 34.859375 
L 9.90625 6.921875 
C 9.90625 3.09375 9.5 2.59375 3.09375 2.59375 
L 3.09375 0 
C 5.5 0.1875 10.09375 0.1875 12.703125 0.1875 
C 15.59375 0.1875 20.703125 0.1875 23.40625 0 
L 23.40625 2.59375 
C 16.203125 2.59375 15 2.59375 15 7.109375 
z
" id="CMR17-114"/>
      <path d="M 39 34.109375 
C 41.5 40.296875 46 40.390625 47.40625 40.390625 
L 47.40625 43 
C 45.5 42.890625 43 42.796875 41.09375 42.796875 
C 39 42.796875 35.703125 42.796875 33.703125 43 
L 33.703125 40.390625 
C 37.5 40.09375 37.59375 37.25 37.59375 36.4375 
C 37.59375 35.4375 37.40625 34.921875 36.90625 33.71875 
L 26 6.390625 
L 14.09375 35.9375 
C 13.59375 37.15625 13.59375 37.859375 13.59375 37.96875 
C 13.59375 40.1875 15.90625 40.390625 18.296875 40.390625 
L 18.296875 43 
C 15.90625 42.796875 11.59375 42.796875 9.09375 42.796875 
C 6.40625 42.796875 3.203125 42.796875 1 43 
L 1 40.390625 
C 6.40625 40.390625 7 39.890625 8.296875 36.640625 
L 23.203125 -0.484375 
C 18.703125 -12.421875 16.09375 -19.40625 9.796875 -19.40625 
C 8.703125 -19.40625 6.203125 -19.109375 4.40625 -17.28125 
C 6.703125 -17.078125 7.703125 -15.65625 7.703125 -13.9375 
C 7.703125 -12.21875 6.5 -10.703125 4.5 -10.703125 
C 2.296875 -10.703125 1.203125 -12.21875 1.203125 -14.046875 
C 1.203125 -18.09375 5.296875 -21 9.796875 -21 
C 15.59375 -21 19.203125 -15.359375 21.203125 -10.296875 
z
" id="CMR17-121"/>
      <path d="M 56.09375 60.90625 
C 56.09375 65.390625 57.203125 65.390625 64.09375 65.390625 
L 64.09375 68 
C 61.203125 67.796875 55.90625 67.796875 52.796875 67.796875 
C 49.703125 67.796875 44.40625 67.796875 41.5 68 
L 41.5 65.390625 
C 48.40625 65.390625 49.5 65.390625 49.5 60.90625 
L 49.5 36.59375 
L 19.703125 36.59375 
L 19.703125 60.90625 
C 19.703125 65.390625 20.796875 65.390625 27.703125 65.390625 
L 27.703125 68 
C 24.796875 67.796875 19.5 67.796875 16.40625 67.796875 
C 13.296875 67.796875 8 67.796875 5.09375 68 
L 5.09375 65.390625 
C 12 65.390625 13.09375 65.390625 13.09375 60.90625 
L 13.09375 7.0625 
C 13.09375 2.59375 12 2.59375 5.09375 2.59375 
L 5.09375 0 
C 8 0.1875 13.296875 0.1875 16.40625 0.1875 
C 19.5 0.1875 24.796875 0.1875 27.703125 0 
L 27.703125 2.59375 
C 20.796875 2.59375 19.703125 2.59375 19.703125 7.0625 
L 19.703125 34 
L 49.5 34 
L 49.5 7.0625 
C 49.5 2.59375 48.40625 2.59375 41.5 2.59375 
L 41.5 0 
C 44.40625 0.1875 49.703125 0.1875 52.796875 0.1875 
C 55.90625 0.1875 61.203125 0.1875 64.09375 0 
L 64.09375 2.59375 
C 57.203125 2.59375 56.09375 2.59375 56.09375 7.0625 
z
" id="CMR17-72"/>
      <path d="M 67.59375 30.53125 
C 67.59375 35.5625 66.703125 44 54.796875 44 
C 48 44 43.296875 39.375 41.5 33.953125 
L 41.40625 33.953125 
C 40.203125 42.1875 34.296875 44 28.703125 44 
C 20.796875 44 16.703125 37.875 15.203125 33.84375 
L 15.09375 33.84375 
L 15.09375 44 
L 3.296875 42.890625 
L 3.296875 40.28125 
C 9.203125 40.28125 10.09375 39.6875 10.09375 34.859375 
L 10.09375 6.921875 
C 10.09375 3.09375 9.703125 2.59375 3.296875 2.59375 
L 3.296875 0 
C 5.703125 0.1875 10.09375 0.1875 12.703125 0.1875 
C 15.296875 0.1875 19.796875 0.1875 22.203125 0 
L 22.203125 2.59375 
C 15.796875 2.59375 15.40625 3 15.40625 6.921875 
L 15.40625 26.21875 
C 15.40625 35.453125 21 42.390625 28 42.390625 
C 35.40625 42.390625 36.203125 35.765625 36.203125 30.9375 
L 36.203125 6.921875 
C 36.203125 3.09375 35.796875 2.59375 29.40625 2.59375 
L 29.40625 0 
C 31.796875 0.1875 36.203125 0.1875 38.796875 0.1875 
C 41.40625 0.1875 45.90625 0.1875 48.296875 0 
L 48.296875 2.59375 
C 41.90625 2.59375 41.5 3 41.5 6.921875 
L 41.5 26.21875 
C 41.5 35.453125 47.09375 42.390625 54.09375 42.390625 
C 61.5 42.390625 62.296875 35.765625 62.296875 30.9375 
L 62.296875 6.921875 
C 62.296875 3.09375 61.90625 2.59375 55.5 2.59375 
L 55.5 0 
C 57.90625 0.1875 62.296875 0.1875 64.90625 0.1875 
C 67.5 0.1875 72 0.1875 74.40625 0 
L 74.40625 2.59375 
C 68 2.59375 67.59375 3 67.59375 6.921875 
z
" id="CMR17-109"/>
      <path d="M 11.09375 18.203125 
C 13 16.6875 16.296875 15 20.296875 15 
C 28.203125 15 35 21.234375 35 29.609375 
C 35 32.234375 34.203125 36.265625 31.203125 39.390625 
C 34 42.390625 38.09375 43.390625 40.40625 43.390625 
C 40.796875 43.390625 41.40625 43.390625 41.90625 43.09375 
C 41.5 42.984375 40.59375 42.59375 40.59375 40.984375 
C 40.59375 39.6875 41.5 38.796875 42.796875 38.796875 
C 44.296875 38.796875 45.09375 39.796875 45.09375 41.09375 
C 45.09375 42.984375 43.59375 45 40.40625 45 
C 36.40625 45 32.90625 43.09375 30.09375 40.484375 
C 27.09375 43.1875 23.5 44.1875 20.296875 44.1875 
C 12.40625 44.1875 5.59375 37.984375 5.59375 29.609375 
C 5.59375 23.859375 8.90625 20.21875 9.90625 19.21875 
C 6.90625 15.6875 6.90625 11.59375 6.90625 11.09375 
C 6.90625 8.5 7.90625 4.6875 11.296875 2.59375 
C 6.09375 1.28125 2 -2.875 2 -8.078125 
C 2 -15.5625 11.5 -21 22.90625 -21 
C 33.90625 -21 43.796875 -15.765625 43.796875 -7.96875 
C 43.796875 6 29 6 21.296875 6 
C 19 6 14.90625 6 14.40625 6.09375 
C 11.296875 6.59375 9.203125 9.390625 9.203125 12.890625 
C 9.203125 13.796875 9.203125 16 11.09375 18.203125 
z
M 20.296875 16.6875 
C 11.5 16.6875 11.5 27.59375 11.5 29.609375 
C 11.5 31.625 11.5 42.484375 20.296875 42.484375 
C 29.09375 42.484375 29.09375 31.625 29.09375 29.609375 
C 29.09375 27.59375 29.09375 16.6875 20.296875 16.6875 
z
M 22.90625 -19.3125 
C 12.90625 -19.3125 6 -13.796875 6 -8.078125 
C 6 -4.859375 7.703125 -1.84375 9.90625 -0.171875 
C 12.40625 1.59375 13.40625 1.59375 20.203125 1.59375 
C 28.40625 1.59375 39.796875 1.59375 39.796875 -8.078125 
C 39.796875 -13.796875 32.90625 -19.3125 22.90625 -19.3125 
z
" id="CMR17-103"/>
     </defs>
     <g transform="translate(297.316833 57.390498)scale(0.1 -0.1)">
      <use transform="scale(0.996264)" xlink:href="#CMR17-66"/>
      <use transform="translate(65.188754 0)scale(0.996264)" xlink:href="#CMR17-105"/>
      <use transform="translate(90.059813 0)scale(0.996264)" xlink:href="#CMR17-110"/>
      <use transform="translate(140.955183 0)scale(0.996264)" xlink:href="#CMR17-97"/>
      <use transform="translate(186.64566 0)scale(0.996264)" xlink:href="#CMR17-114"/>
      <use transform="translate(221.926428 0)scale(0.996264)" xlink:href="#CMR17-121"/>
      <use transform="translate(300.29531 0)scale(0.996264)" xlink:href="#CMR17-72"/>
      <use transform="translate(369.36774 0)scale(0.996264)" xlink:href="#CMR17-97"/>
      <use transform="translate(415.058217 0)scale(0.996264)" xlink:href="#CMR17-109"/>
      <use transform="translate(491.977807 0)scale(0.996264)" xlink:href="#CMR17-109"/>
      <use transform="translate(568.897396 0)scale(0.996264)" xlink:href="#CMR17-105"/>
      <use transform="translate(593.768455 0)scale(0.996264)" xlink:href="#CMR17-110"/>
      <use transform="translate(644.663825 0)scale(0.996264)" xlink:href="#CMR17-103"/>
     </g>
    </g>
    <g id="line2d_29">
     <path d="M 264.076461 67.827677 
L 284.076461 67.827677 
" style="fill:none;"/>
    </g>
    <g id="line2d_30">
     <g>
      <use style="fill:#0000ff;stroke:#0000ff;" x="274.076461" xlink:href="#m70cff5d6e3" y="67.827677"/>
     </g>
    </g>
    <g id="text_16">
     <!-- Gilbert-Varshamov bound -->
     <defs>
      <path d="M 62.09375 19.65625 
C 62.09375 23.484375 62.40625 24 68.59375 24 
L 68.59375 26.59375 
C 66.203125 26.390625 60.796875 26.390625 58.09375 26.390625 
C 55.296875 26.390625 47.5 26.5 43.703125 26.59375 
L 43.703125 24 
L 46.703125 24 
C 55.296875 24 55.5 22.875 55.5 19.25 
L 55.5 12.59375 
C 55.5 1.5 42.5 0.59375 39.40625 0.59375 
C 29.09375 0.59375 12.203125 7.75 12.203125 34.046875 
C 12.203125 60.34375 28.796875 67.390625 38.5 67.390625 
C 49.796875 67.390625 58 57.515625 59.90625 43.515625 
C 60.09375 42.3125 60.09375 42.109375 61 42.109375 
C 62.09375 42.109375 62.09375 42.3125 62.09375 44.125 
L 62.09375 67.984375 
C 62.09375 69.796875 62 69.890625 61.40625 69.890625 
C 61 69.890625 60.90625 69.796875 60.203125 68.59375 
L 55.796875 60.140625 
C 50.90625 66.390625 44.90625 70 37.203125 70 
C 20.09375 70 4.59375 54.796875 4.59375 34.046875 
C 4.59375 13.40625 19.796875 -2 37.40625 -2 
C 45.5 -2 53.40625 0.890625 56.5 6.640625 
C 58.203125 2.515625 61 -0.3125 61.5 -0.3125 
C 62 -0.3125 62.09375 -0.203125 62.09375 1.59375 
z
" id="CMR17-71"/>
      <path d="M 15.296875 69 
L 3.40625 67.890625 
L 3.40625 65.296875 
C 9.296875 65.296875 10.203125 64.703125 10.203125 59.921875 
L 10.203125 6.859375 
C 10.203125 3.09375 9.796875 2.59375 3.40625 2.59375 
L 3.40625 0 
C 5.796875 0.1875 10.203125 0.1875 12.703125 0.1875 
C 15.296875 0.1875 19.703125 0.1875 22.09375 0 
L 22.09375 2.59375 
C 15.703125 2.59375 15.296875 2.984375 15.296875 6.859375 
z
" id="CMR17-108"/>
      <path d="M 15 69 
L 3.09375 67.890625 
L 3.09375 65.296875 
C 9 65.296875 9.90625 64.703125 9.90625 60.046875 
L 9.90625 -0.203125 
L 11.703125 -0.203125 
L 14.59375 6.953125 
C 17.5 2.203125 21.796875 -1 27.59375 -1 
C 37.59375 -1 47.703125 7.859375 47.703125 21.59375 
C 47.703125 34.515625 38.703125 44 28.59375 44 
C 22.40625 44 18 40.671875 15 36.734375 
z
M 15.203125 31.59375 
C 15.203125 33.40625 15.203125 33.703125 16.59375 35.828125 
C 20.5 41.890625 26.09375 42.390625 28 42.390625 
C 31 42.390625 41.296875 40.78125 41.296875 21.6875 
C 41.296875 1.703125 29.5 0.59375 27.09375 0.59375 
C 24 0.59375 19.5 1.796875 16.296875 7.65625 
C 15.203125 9.578125 15.203125 9.78125 15.203125 11.59375 
z
" id="CMR17-98"/>
      <path d="M 38.09375 23.484375 
C 38.5 23.890625 38.5 24.09375 38.5 25.09375 
C 38.5 35.171875 33.09375 44 21.703125 44 
C 11.09375 44 2.703125 33.984375 2.703125 21.78125 
C 2.703125 8.65625 12.203125 -1 22.796875 -1 
C 34 -1 38.40625 9.671875 38.40625 11.796875 
C 38.40625 12.5 37.796875 12.5 37.59375 12.5 
C 36.90625 12.5 36.796875 12.296875 36.40625 11.078125 
C 34.203125 4.21875 28.703125 0.796875 23.5 0.796875 
C 19.203125 0.796875 14.90625 3.21875 12.203125 7.65625 
C 9.09375 12.796875 9.09375 18.75 9.09375 23.484375 
z
M 9.203125 25 
C 9.90625 39.234375 17.59375 42.390625 21.59375 42.390625 
C 28.40625 42.390625 33 36.0625 33.09375 25 
z
" id="CMR17-101"/>
      <path d="M 15.09375 40.390625 
L 29.09375 40.390625 
L 29.09375 43 
L 15.09375 43 
L 15.09375 62 
L 13.296875 62 
C 13.09375 51.4375 9.59375 42.1875 1.09375 41.984375 
L 1.09375 40.390625 
L 9.796875 40.390625 
L 9.796875 12.15625 
C 9.796875 10.234375 9.796875 -1 21.40625 -1 
C 27.296875 -1 30.703125 4.8125 30.703125 12.25 
L 30.703125 17.984375 
L 28.90625 17.984375 
L 28.90625 12.34375 
C 28.90625 5.421875 26.203125 0.796875 22 0.796875 
C 19.09375 0.796875 15.09375 2.796875 15.09375 11.953125 
z
" id="CMR17-116"/>
      <path d="M 25.5 19.59375 
L 25.5 24 
L 0.40625 24 
L 0.40625 19.59375 
z
" id="CMR17-45"/>
      <path d="M 59 58.78125 
C 59.90625 60.984375 61.5 65.296875 68.203125 65.390625 
L 68.203125 68 
C 65.90625 67.796875 63.296875 67.796875 60.796875 67.796875 
C 58.40625 67.796875 54.296875 67.796875 52 68 
L 52 65.390625 
C 57 65.09375 57.203125 61.59375 57.203125 60.984375 
C 57.203125 59.890625 56.90625 59.1875 56.59375 58.390625 
L 36.90625 7 
L 16.296875 60.984375 
C 16 61.6875 15.796875 62.1875 15.796875 62.6875 
C 15.796875 65.390625 19.796875 65.390625 21.90625 65.390625 
L 21.90625 68 
C 18.703125 67.796875 14 67.796875 10.703125 67.796875 
C 8.09375 67.796875 3.40625 67.796875 1 68 
L 1 65.390625 
C 6.796875 65.390625 7.90625 65 9.09375 61.796875 
L 32.90625 -0.40625 
C 33.40625 -1.8125 33.5 -2 34.59375 -2 
C 35.703125 -2 35.796875 -1.8125 36.296875 -0.40625 
z
" id="CMR17-86"/>
      <path d="M 30.90625 42 
C 30.90625 43.796875 30.796875 43.890625 30.203125 43.890625 
C 29.796875 43.890625 29.703125 43.796875 28.5 42.296875 
C 28.203125 41.890625 27.296875 40.890625 27 40.5 
C 23.796875 43.890625 19.296875 44 17.59375 44 
C 6.5 44 2.5 38.1875 2.5 32.390625 
C 2.5 23.390625 12.703125 21.296875 15.59375 20.6875 
C 21.90625 19.390625 24.09375 19 26.203125 17.1875 
C 27.5 16 29.703125 13.796875 29.703125 10.1875 
C 29.703125 6 27.296875 0.59375 18.09375 0.59375 
C 9.40625 0.59375 6.296875 7.1875 4.5 16 
C 4.203125 17.390625 4.203125 17.5 3.40625 17.5 
C 2.59375 17.5 2.5 17.390625 2.5 15.390625 
L 2.5 1 
C 2.5 -0.8125 2.59375 -0.90625 3.203125 -0.90625 
C 3.703125 -0.90625 3.796875 -0.8125 4.296875 0 
C 4.90625 0.890625 6.40625 3.296875 7 4.296875 
C 9 1.59375 12.5 -1 18.09375 -1 
C 28 -1 33.296875 4.390625 33.296875 12.1875 
C 33.296875 17.296875 30.59375 20 29.296875 21.1875 
C 26.296875 24.296875 22.796875 25 18.59375 25.796875 
C 13.09375 27 6.09375 28.390625 6.09375 34.5 
C 6.09375 37.09375 7.5 42.59375 17.59375 42.59375 
C 28.296875 42.59375 28.90625 32.59375 29.09375 29.390625 
C 29.203125 28.890625 29.703125 28.796875 30 28.796875 
C 30.90625 28.796875 30.90625 29.09375 30.90625 30.796875 
z
" id="CMR17-115"/>
      <path d="M 41.5 30.53125 
C 41.5 35.65625 40.5 44 28.703125 44 
C 20.5 44 16.5 37.375 15.296875 34.046875 
L 15.203125 34.046875 
L 15.203125 69 
L 3.296875 67.890625 
L 3.296875 65.296875 
C 9.203125 65.296875 10.09375 64.703125 10.09375 60.046875 
L 10.09375 6.921875 
C 10.09375 3.09375 9.703125 2.59375 3.296875 2.59375 
L 3.296875 0 
C 5.703125 0.1875 10.09375 0.1875 12.703125 0.1875 
C 15.296875 0.1875 19.796875 0.1875 22.203125 0 
L 22.203125 2.59375 
C 15.796875 2.59375 15.40625 3 15.40625 6.921875 
L 15.40625 26.21875 
C 15.40625 35.453125 21 42.390625 28 42.390625 
C 35.40625 42.390625 36.203125 35.765625 36.203125 30.9375 
L 36.203125 6.921875 
C 36.203125 3.09375 35.796875 2.59375 29.40625 2.59375 
L 29.40625 0 
C 31.796875 0.1875 36.203125 0.1875 38.796875 0.1875 
C 41.40625 0.1875 45.90625 0.1875 48.296875 0 
L 48.296875 2.59375 
C 41.90625 2.59375 41.5 3 41.5 6.921875 
z
" id="CMR17-104"/>
      <path d="M 43.09375 21.1875 
C 43.09375 34 33.796875 44 22.90625 44 
C 12 44 2.703125 34 2.703125 21.1875 
C 2.703125 8.59375 12 -1 22.90625 -1 
C 33.796875 -1 43.09375 8.59375 43.09375 21.1875 
z
M 22.90625 0.796875 
C 18.203125 0.796875 14.203125 3.59375 11.90625 7.5 
C 9.40625 12 9.09375 17.59375 9.09375 22 
C 9.09375 26.1875 9.296875 31.390625 11.90625 35.890625 
C 13.90625 39.1875 17.796875 42.390625 22.90625 42.390625 
C 27.40625 42.390625 31.203125 39.890625 33.59375 36.390625 
C 36.703125 31.6875 36.703125 25.09375 36.703125 22 
C 36.703125 18.09375 36.5 12.09375 33.796875 7.296875 
C 31 2.6875 26.703125 0.796875 22.90625 0.796875 
z
" id="CMR17-111"/>
      <path d="M 39.09375 33.953125 
C 40 36.171875 41.59375 40.1875 47.40625 40.390625 
L 47.40625 43 
C 45.5 42.890625 43 42.796875 41.09375 42.796875 
C 39 42.796875 35.703125 42.796875 33.703125 43 
L 33.703125 40.390625 
C 36.203125 40.1875 37.59375 38.984375 37.59375 36.375 
C 37.59375 35.46875 37.59375 35.265625 37 33.859375 
L 26 5.921875 
L 14.09375 36.0625 
C 13.5 37.375 13.5 37.578125 13.5 37.984375 
C 13.5 40.390625 16.796875 40.390625 18.296875 40.390625 
L 18.296875 43 
C 15.90625 42.796875 11.5 42.796875 9 42.796875 
C 6.296875 42.796875 3.203125 42.796875 1 43 
L 1 40.390625 
C 4.796875 40.390625 6.90625 40.390625 8.09375 37.28125 
L 22.59375 0.6875 
C 23.203125 -0.8125 23.296875 -1 24.203125 -1 
C 25.09375 -1 25.203125 -0.8125 25.796875 0.6875 
z
" id="CMR17-118"/>
      <path d="M 29.40625 42.890625 
L 29.40625 40.296875 
C 35.296875 40.296875 36.203125 39.6875 36.203125 34.828125 
L 36.203125 16.453125 
C 36.203125 7.96875 31.703125 0.59375 24.296875 0.59375 
C 16.09375 0.59375 15.40625 5.546875 15.40625 10.796875 
L 15.40625 44 
L 3.296875 42.890625 
L 3.296875 40.296875 
C 7.296875 40.296875 10 40.296875 10.09375 36.25 
L 10.09375 16.859375 
C 10.09375 10.09375 10.09375 5.75 12.703125 2.921875 
C 14 1.609375 16.5 -1 23.703125 -1 
C 32.203125 -1 35.5 6.25 36.296875 8.375 
L 36.40625 8.375 
L 36.40625 -1 
L 48.296875 -0.203125 
L 48.296875 2.40625 
C 42.40625 2.40625 41.5 3.015625 41.5 7.859375 
L 41.5 44 
z
" id="CMR17-117"/>
      <path d="M 29.203125 67.890625 
L 29.203125 65.296875 
C 35.09375 65.296875 36 64.703125 36 60.046875 
L 36 37.046875 
C 35.59375 37.546875 31.5 44 23.40625 44 
C 13.203125 44 3.296875 34.8125 3.296875 21.5 
C 3.296875 8.265625 12.59375 -1 22.40625 -1 
C 30.90625 -1 35.296875 5.640625 35.796875 6.34375 
L 35.796875 -1 
L 47.90625 -0.203125 
L 47.90625 2.40625 
C 42 2.40625 41.09375 3.015625 41.09375 7.859375 
L 41.09375 69 
z
M 35.796875 11.90625 
C 35.796875 8.875 34 6.140625 31.703125 4.125 
C 28.296875 1.09375 24.90625 0.59375 23 0.59375 
C 20.09375 0.59375 9.703125 2.109375 9.703125 21.390625 
C 9.703125 41.1875 21.296875 42.390625 23.90625 42.390625 
C 28.5 42.390625 32.203125 39.765625 34.5 36.140625 
C 35.796875 34.015625 35.796875 33.703125 35.796875 31.890625 
z
" id="CMR17-100"/>
     </defs>
     <g transform="translate(292.076461 71.327677)scale(0.1 -0.1)">
      <use transform="scale(0.996264)" xlink:href="#CMR17-71"/>
      <use transform="translate(72.355346 0)scale(0.996264)" xlink:href="#CMR17-105"/>
      <use transform="translate(97.226404 0)scale(0.996264)" xlink:href="#CMR17-108"/>
      <use transform="translate(122.097463 0)scale(0.996264)" xlink:href="#CMR17-98"/>
      <use transform="translate(175.595271 0)scale(0.996264)" xlink:href="#CMR17-101"/>
      <use transform="translate(216.080932 0)scale(0.996264)" xlink:href="#CMR17-114"/>
      <use transform="translate(251.3617 0)scale(0.996264)" xlink:href="#CMR17-116"/>
      <use transform="translate(286.642467 0)scale(0.996264)" xlink:href="#CMR17-45"/>
      <use transform="translate(316.718434 0)scale(0.996264)" xlink:href="#CMR17-86"/>
      <use transform="translate(377.983608 0)scale(0.996264)" xlink:href="#CMR17-97"/>
      <use transform="translate(423.674085 0)scale(0.996264)" xlink:href="#CMR17-114"/>
      <use transform="translate(458.954853 0)scale(0.996264)" xlink:href="#CMR17-115"/>
      <use transform="translate(494.756191 0)scale(0.996264)" xlink:href="#CMR17-104"/>
      <use transform="translate(545.651561 0)scale(0.996264)" xlink:href="#CMR17-97"/>
      <use transform="translate(591.342038 0)scale(0.996264)" xlink:href="#CMR17-109"/>
      <use transform="translate(668.261628 0)scale(0.996264)" xlink:href="#CMR17-111"/>
      <use transform="translate(711.349651 0)scale(0.996264)" xlink:href="#CMR17-118"/>
      <use transform="translate(789.718533 0)scale(0.996264)" xlink:href="#CMR17-98"/>
      <use transform="translate(843.216341 0)scale(0.996264)" xlink:href="#CMR17-111"/>
      <use transform="translate(888.906819 0)scale(0.996264)" xlink:href="#CMR17-117"/>
      <use transform="translate(939.802188 0)scale(0.996264)" xlink:href="#CMR17-110"/>
      <use transform="translate(990.697558 0)scale(0.996264)" xlink:href="#CMR17-100"/>
     </g>
    </g>
    <g id="line2d_31">
     <path d="M 264.076461 81.764855 
L 284.076461 81.764855 
" style="fill:none;"/>
    </g>
    <g id="line2d_32">
     <g>
      <use style="fill:#008000;stroke:#008000;stroke-linejoin:miter;" x="274.076461" xlink:href="#mc4f9427705" y="81.764855"/>
     </g>
    </g>
    <g id="text_17">
     <!-- Hamming bound -->
     <g transform="translate(292.076461 85.264855)scale(0.1 -0.1)">
      <use transform="scale(0.996264)" xlink:href="#CMR17-72"/>
      <use transform="translate(69.07243 0)scale(0.996264)" xlink:href="#CMR17-97"/>
      <use transform="translate(114.762907 0)scale(0.996264)" xlink:href="#CMR17-109"/>
      <use transform="translate(191.682497 0)scale(0.996264)" xlink:href="#CMR17-109"/>
      <use transform="translate(268.602087 0)scale(0.996264)" xlink:href="#CMR17-105"/>
      <use transform="translate(293.473145 0)scale(0.996264)" xlink:href="#CMR17-110"/>
      <use transform="translate(344.368515 0)scale(0.996264)" xlink:href="#CMR17-103"/>
      <use transform="translate(420.134958 0)scale(0.996264)" xlink:href="#CMR17-98"/>
      <use transform="translate(473.632767 0)scale(0.996264)" xlink:href="#CMR17-111"/>
      <use transform="translate(519.323244 0)scale(0.996264)" xlink:href="#CMR17-117"/>
      <use transform="translate(570.218614 0)scale(0.996264)" xlink:href="#CMR17-110"/>
      <use transform="translate(621.113984 0)scale(0.996264)" xlink:href="#CMR17-100"/>
     </g>
    </g>
    <g id="line2d_33">
     <path d="M 264.076461 95.702033 
L 284.076461 95.702033 
" style="fill:none;stroke:#000000;stroke-dasharray:3.7,1.6;stroke-dashoffset:0;"/>
    </g>
    <g id="line2d_34"/>
    <g id="text_18">
     <!-- Singleton bound -->
     <defs>
      <path d="M 43.796875 67.984375 
C 43.796875 69.796875 43.703125 69.890625 43.09375 69.890625 
C 42.5 69.890625 42.296875 69.484375 41.90625 68.59375 
L 38.90625 61.953125 
C 35.09375 67.5 29.296875 70 23 70 
C 12.796875 70 4.59375 61.84375 4.59375 51.578125 
C 4.59375 48.453125 5.296875 44.015625 8.703125 39.78125 
C 12.40625 35.15625 15.90625 34.34375 23.90625 32.234375 
C 26.90625 31.421875 31.90625 30.109375 32.90625 29.703125 
C 38.59375 27.296875 41.59375 21.25 41.59375 15.609375 
C 41.59375 8.34375 36.5 0.59375 27.796875 0.59375 
C 17.09375 0.59375 7.09375 6.640625 6.40625 20.75 
C 6.296875 22.359375 6.203125 22.453125 5.5 22.453125 
C 4.703125 22.453125 4.59375 22.359375 4.59375 20.34375 
L 4.59375 0 
C 4.59375 -1.8125 4.703125 -1.90625 5.296875 -1.90625 
C 6 -1.90625 6.203125 -1.40625 7.59375 1.703125 
C 7.703125 2 7.703125 2.203125 9.59375 6.03125 
C 14.59375 -0.609375 23 -2 27.796875 -2 
C 38.703125 -2 46.40625 7.140625 46.40625 17.828125 
C 46.40625 23.0625 44.5 27.09375 43.40625 28.90625 
C 39.203125 35.359375 34.703125 36.5625 29.90625 37.765625 
C 29.203125 38.078125 29 38.078125 23.40625 39.484375 
C 18 40.890625 15.703125 41.59375 13.203125 44.3125 
C 10.40625 47.4375 9.40625 50.671875 9.40625 53.890625 
C 9.40625 60.4375 14.59375 67.59375 23.09375 67.59375 
C 33.703125 67.59375 40.296875 60.03125 41.796875 47.4375 
C 42.09375 45.625 42.203125 45.53125 42.90625 45.53125 
C 43.796875 45.53125 43.796875 45.828125 43.796875 47.546875 
z
" id="CMR17-83"/>
     </defs>
     <g transform="translate(292.076461 99.202033)scale(0.1 -0.1)">
      <use transform="scale(0.996264)" xlink:href="#CMR17-83"/>
      <use transform="translate(50.89537 0)scale(0.996264)" xlink:href="#CMR17-105"/>
      <use transform="translate(75.766428 0)scale(0.996264)" xlink:href="#CMR17-110"/>
      <use transform="translate(126.661798 0)scale(0.996264)" xlink:href="#CMR17-103"/>
      <use transform="translate(172.352275 0)scale(0.996264)" xlink:href="#CMR17-108"/>
      <use transform="translate(197.223334 0)scale(0.996264)" xlink:href="#CMR17-101"/>
      <use transform="translate(237.708994 0)scale(0.996264)" xlink:href="#CMR17-116"/>
      <use transform="translate(272.989762 0)scale(0.996264)" xlink:href="#CMR17-111"/>
      <use transform="translate(318.680239 0)scale(0.996264)" xlink:href="#CMR17-110"/>
      <use transform="translate(399.651575 0)scale(0.996264)" xlink:href="#CMR17-98"/>
      <use transform="translate(453.149384 0)scale(0.996264)" xlink:href="#CMR17-111"/>
      <use transform="translate(498.839861 0)scale(0.996264)" xlink:href="#CMR17-117"/>
      <use transform="translate(549.735231 0)scale(0.996264)" xlink:href="#CMR17-110"/>
      <use transform="translate(600.6306 0)scale(0.996264)" xlink:href="#CMR17-100"/>
     </g>
    </g>
    <g id="line2d_35">
     <path d="M 264.076461 109.639212 
L 284.076461 109.639212 
" style="fill:none;"/>
    </g>
    <g id="line2d_36">
     <g>
      <use style="stroke:#000000;stroke-linejoin:miter;" x="274.076461" xlink:href="#m2bd6b4df6c" y="109.639212"/>
     </g>
    </g>
    <g id="text_19">
     <!-- Elias-Bassalygo bound -->
     <defs>
      <path d="M 60.703125 25.21875 
L 58.90625 25.21875 
C 56.703125 10.5625 55.40625 2.59375 37.796875 2.59375 
L 23.90625 2.59375 
C 19.90625 2.59375 19.703125 3.09375 19.703125 6.484375 
L 19.703125 34 
L 29.09375 34 
C 38.5 34 39.40625 30.609375 39.40625 22.328125 
L 41.203125 22.328125 
L 41.203125 48.21875 
L 39.40625 48.21875 
C 39.40625 39.96875 38.5 36.59375 29.09375 36.59375 
L 19.703125 36.59375 
L 19.703125 61.3125 
C 19.703125 64.703125 19.90625 65.1875 23.90625 65.1875 
L 37.59375 65.1875 
C 53.09375 65.1875 54.90625 59.03125 56.296875 45.828125 
L 58.09375 45.828125 
L 55.703125 67.796875 
L 5.09375 67.796875 
L 5.09375 65.1875 
C 12 65.1875 13.09375 65.1875 13.09375 60.71875 
L 13.09375 7.078125 
C 13.09375 2.59375 12 2.59375 5.09375 2.59375 
L 5.09375 0 
L 57.09375 0 
z
" id="CMR17-69"/>
     </defs>
     <g transform="translate(292.076461 113.139212)scale(0.1 -0.1)">
      <use transform="scale(0.996264)" xlink:href="#CMR17-69"/>
      <use transform="translate(62.586301 0)scale(0.996264)" xlink:href="#CMR17-108"/>
      <use transform="translate(87.457359 0)scale(0.996264)" xlink:href="#CMR17-105"/>
      <use transform="translate(112.328417 0)scale(0.996264)" xlink:href="#CMR17-97"/>
      <use transform="translate(158.018895 0)scale(0.996264)" xlink:href="#CMR17-115"/>
      <use transform="translate(193.820232 0)scale(0.996264)" xlink:href="#CMR17-45"/>
      <use transform="translate(223.896199 0)scale(0.996264)" xlink:href="#CMR17-66"/>
      <use transform="translate(289.084953 0)scale(0.996264)" xlink:href="#CMR17-97"/>
      <use transform="translate(334.77543 0)scale(0.996264)" xlink:href="#CMR17-115"/>
      <use transform="translate(370.576768 0)scale(0.996264)" xlink:href="#CMR17-115"/>
      <use transform="translate(406.378105 0)scale(0.996264)" xlink:href="#CMR17-97"/>
      <use transform="translate(452.068583 0)scale(0.996264)" xlink:href="#CMR17-108"/>
      <use transform="translate(476.939641 0)scale(0.996264)" xlink:href="#CMR17-121"/>
      <use transform="translate(525.232557 0)scale(0.996264)" xlink:href="#CMR17-103"/>
      <use transform="translate(570.923034 0)scale(0.996264)" xlink:href="#CMR17-111"/>
      <use transform="translate(646.689477 0)scale(0.996264)" xlink:href="#CMR17-98"/>
      <use transform="translate(700.187286 0)scale(0.996264)" xlink:href="#CMR17-111"/>
      <use transform="translate(745.877763 0)scale(0.996264)" xlink:href="#CMR17-117"/>
      <use transform="translate(796.773133 0)scale(0.996264)" xlink:href="#CMR17-110"/>
      <use transform="translate(847.668503 0)scale(0.996264)" xlink:href="#CMR17-100"/>
     </g>
    </g>
   </g>
  </g>
 </g>
 <defs>
  <clipPath id="p0b7bc50680">
   <rect height="266.112" width="357.12" x="57.6" y="41.472"/>
  </clipPath>
 </defs>
</svg>
