<svg version="1.1" viewBox="0.0 0.0 960.0 540.0" fill="none" stroke="none" stroke-linecap="square" stroke-miterlimit="10" xmlns:xlink="http://www.w3.org/1999/xlink" xmlns="http://www.w3.org/2000/svg"><clipPath id="g5e1fdac6f3_0_15.0"><path d="m0 0l960.0 0l0 540.0l-960.0 0l0 -540.0z" clip-rule="nonzero"/></clipPath><g clip-path="url(#g5e1fdac6f3_0_15.0)"><path fill="#ffffff" d="m0 0l960.0 0l0 540.0l-960.0 0z" fill-rule="evenodd"/><path fill="#000000" fill-opacity="0.0" d="m32.72441 77.32496l894.55115 0l0 107.527565l-894.55115 0z" fill-rule="evenodd"/><path fill="#000000" d="m246.22935 122.56689q0 -5.71875 2.15625 -11.265625q2.15625 -5.546875 6.28125 -9.9375q4.1406097 -4.40625 10.031235 -7.125q5.90625 -2.734375 13.46875 -2.734375q9.0625 0 15.703125 3.734375q6.65625 3.734375 9.90625 9.90625l-13.109375 9.328125q-0.875 -2.296875 -2.328125 -3.78125q-1.453125 -1.5 -3.21875 -2.375q-1.75 -0.890625 -3.65625 -1.234375q-1.890625 -0.359375 -3.640625 -0.359375q-3.703125 0 -6.390625 1.453125q-2.671875 1.453125 -4.390625 3.78125q-1.71875 2.328125 -2.5625 5.28125q-0.828125 2.953125 -0.828125 5.859375q0 3.25 0.96875 6.2500076q0.96875 2.984375 2.8125 5.28125q1.84375 2.28125 4.53125 3.640625q2.6875 1.359375 6.03125 1.359375q1.765625 0 3.609375 -0.390625q1.84375 -0.390625 3.5625 -1.3125q1.71875 -0.9375 3.078125 -2.375q1.359375 -1.453125 2.15625 -3.578125l14.0 8.375q-1.40625 3.421875 -4.28125 6.15625q-2.859375 2.71875 -6.515625 4.578125q-3.640625 1.84375 -7.828125 2.8125q-4.171875 0.96875 -8.125 0.96875q-6.953125 0 -12.71875 -2.765625q-5.765625 -2.78125 -9.95311 -7.359375q-4.171875 -4.578125 -6.46875 -10.375q-2.28125 -5.8125 -2.28125 -11.796883zm91.43376 32.296883q-7.125 0 -12.9375 -2.71875q-5.8125 -2.734375 -9.953125 -7.171875q-4.125 -4.453125 -6.421875 -10.171875q-2.28125 -5.71875 -2.28125 -11.796883q0 -6.15625 2.375 -11.875q2.375 -5.71875 6.640625 -10.078125q4.265625 -4.359375 10.109375 -6.953125q5.859375 -2.59375 12.8125 -2.59375q7.140625 0 12.9375 2.734375q5.8125 2.71875 9.9375 7.203125q4.140625 4.484375 6.390625 10.21875q2.25 5.71875 2.25 11.703125q0 6.1562576 -2.390625 11.828133q-2.375 5.671875 -6.59375 10.03125q-4.21875 4.359375 -10.078125 7.0q-5.84375 2.640625 -12.796875 2.640625zm-14.171875 -31.687508q0 3.171875 0.875 6.1250076q0.890625 2.9375 2.640625 5.234375q1.765625 2.28125 4.453125 3.6875q2.6875 1.40625 6.375 1.40625q3.703125 0 6.421875 -1.4375q2.734375 -1.453125 4.4375 -3.78125q1.71875 -2.34375 2.546875 -5.328125q0.84375 -3.0000076 0.84375 -6.0781326q0 -3.171875 -0.875 -6.109375q-0.875 -2.953125 -2.6875 -5.1875q-1.796875 -2.25 -4.484375 -3.609375q-2.6875 -1.375 -6.296875 -1.375q-3.6875 0 -6.375 1.40625q-2.6875 1.40625 -4.453125 3.75q-1.75 2.328125 -2.59375 5.28125q-0.828125 2.9375 -0.828125 6.015625zm70.49194 0.4375l0 30.718758l-17.15625 0l0 -62.484383l13.375 0l25.078125 31.765625l0 -31.765625l17.15625 0l0 62.484383l-13.640625 0l-24.8125 -30.718758zm69.0708 -31.765625l15.765625 0l5.453125 19.28125l5.546875 -19.28125l15.75 0l-10.296875 29.84375l4.484375 13.015633l13.4687805 -42.859383l18.65625 0l-24.46878 62.484383l-14.25 0l-8.890625 -22.359375l-8.8125 22.359375l-14.25 0l-24.46875 -62.484383l18.578125 0l13.546875 42.859383l4.3125 -13.015633l-10.125 -29.84375zm84.136566 0l15.65625 0l21.65625 62.484383l-17.421875 0l-3.796875 -12.234375l-16.625 0l-3.6875 12.234375l-17.515625 0l21.734375 -62.484383zm13.375 38.812508l-5.546875 -19.359383l-5.8125 19.359383l11.359375 0zm35.46942 -38.812508l11.171875 27.015625l11.4375 -27.015625l18.65625 0l-21.5625 41.796883l0 20.6875l-17.0625 0l0 -20.859375l-21.21875 -41.625008l18.578125 0zm46.639282 22.625l2.28125 -11.53125l-4.578125 0l0 -14.078125l17.34375 0l0 14.515625l-3.703125 11.09375l-11.34375 0zm61.94104 -2.203125q-2.640625 -1.578125 -5.453125 -2.8125q-2.375 -1.0625 -5.328125 -1.984375q-2.9375 -0.921875 -5.765625 -0.921875q-2.28125 0 -3.65625 0.703125q-1.359375 0.703125 -1.359375 2.375q0 1.234375 0.796875 2.03125q0.796875 0.78125 2.28125 1.453125q1.5 0.65625 3.65625 1.265625q2.15625 0.609375 4.890625 1.5q4.3125 1.3125 7.78125 2.90625q3.484375 1.578125 5.9375 3.734375q2.46875 2.15625 3.78125 5.234375q1.328125 3.0781326 1.328125 7.4843826q0 5.625 -2.078125 9.453125q-2.0625 3.828125 -5.453125 6.125q-3.375 2.28125 -7.65625 3.296875q-4.265625 1.015625 -8.5625 1.015625q-3.4375 0 -7.046875 -0.53125q-3.609375 -0.53125 -7.171875 -1.5q-3.5625 -0.96875 -6.875 -2.28125q-3.296875 -1.328125 -6.109375 -3.0l7.390625 -15.046875q3.078125 1.9375 6.421875 3.4375q2.828125 1.3125 6.390625 2.375q3.5625 1.046875 7.25 1.046875q2.828125 0 3.921875 -0.734375q1.09375 -0.75 1.09375 -1.984375q0 -1.328125 -1.09375 -2.25q-1.09375 -0.921875 -3.03125 -1.625q-1.9375 -0.703125 -4.453125 -1.40625q-2.5 -0.703125 -5.3125 -1.671875q-4.140625 -1.40625 -7.140625 -3.0312576q-2.984375 -1.640625 -4.921875 -3.703125q-1.9375 -2.0625 -2.859375 -4.703125q-0.921875 -2.640625 -0.921875 -6.078125q0 -5.1875 1.890625 -9.140625q1.890625 -3.96875 5.140625 -6.609375q3.265625 -2.640625 7.4375 -4.0q4.1875 -1.375 8.84375 -1.375q3.4375 0 6.6875 0.671875q3.265625 0.65625 6.296875 1.671875q3.03125 1.015625 5.671875 2.203125q2.640625 1.1875 4.75 2.234375l-7.390625 14.171875z" fill-rule="nonzero"/><path fill="#000000" fill-opacity="0.0" d="m32.72441 200.74959l894.55115 0l0 78.047226l-894.55115 0z" fill-rule="evenodd"/><path fill="#000000" d="m302.74472 237.89995q-8.109375 6.828125 -18.671875 6.828125q-7.359375 0 -14.078125 -2.609375q-6.71875 -2.609375 -11.734375 -7.625q-5.0156097 -5.015625 -7.9999847 -12.265625q-2.984375 -7.25 -2.984375 -16.53125q0 -8.0 2.984375 -14.875q2.984375 -6.890625 8.20311 -11.953125q5.234375 -5.0625 12.328125 -8.0q7.09375 -2.9375 15.3125 -2.9375q5.109375 0 9.796875 1.125q4.703125 1.125 8.703125 3.3125q4.0 2.1875 7.203125 5.234375q3.203125 3.03125 5.21875 6.859375l-15.46875 11.84375q-2.234375 -4.484375 -6.71875 -7.203125q-4.46875 -2.71875 -9.484375 -2.71875q-3.734375 0 -6.828125 1.5q-3.09375 1.484375 -5.34375 4.15625q-2.234375 2.671875 -3.515625 6.359375q-1.265625 3.671875 -1.265625 8.046875q0 4.46875 1.265625 8.09375q1.28125 3.625 3.578125 6.25q2.296875 2.609375 5.484375 4.046875q3.203125 1.4375 7.15625 1.4375q9.0625 0 16.0 -7.46875l-13.125 0l0 -14.921875l31.15625 0l0 40.3125l-17.171875 0l0 -6.296875zm47.022156 -69.421875l18.984375 0l26.25 75.71875l-21.125 0l-4.578125 -14.828125l-20.171875 0l-4.46875 14.828125l-21.234375 0l26.34375 -75.71875zm16.21875 47.03125l-6.71875 -23.46875l-7.046875 23.46875l13.765625 0zm92.57724 28.6875l0 -39.890625l-12.6875 28.046875l-11.09375 0l-12.703125 -28.046875l0 39.890625l-20.796875 0l0 -75.71875l22.71875 0l16.328125 35.609375l16.421875 -35.609375l22.609375 0l0 75.71875l-20.796875 0zm87.77203 -18.125l0 18.125l-53.96878 0l0 -75.71875l53.015656 0l0 18.125l-32.21875 0l0 10.671875l27.53125 0l0 16.84375l-27.53125 0l0 11.953125l33.171875 0zm67.84332 18.765625q-8.640625 0 -15.6875 -3.296875q-7.03125 -3.3125 -12.046875 -8.703125q-5.015625 -5.390625 -7.796875 -12.3125q-2.765625 -6.9375 -2.765625 -14.296875q0 -7.46875 2.875 -14.390625q2.890625 -6.9375 8.0625 -12.21875q5.171875 -5.28125 12.265625 -8.421875q7.09375 -3.15625 15.515625 -3.15625q8.640625 0 15.671875 3.3125q7.046875 3.296875 12.0625 8.75q5.015625 5.4375 7.734375 12.375q2.71875 6.921875 2.71875 14.171875q0 7.46875 -2.890625 14.359375q-2.875 6.875 -8.0 12.15625q-5.109375 5.265625 -12.203125 8.46875q-7.09375 3.203125 -15.515625 3.203125zm-17.171875 -38.390625q0 3.828125 1.0625 7.40625q1.0625 3.578125 3.1875 6.359375q2.140625 2.765625 5.390625 4.46875q3.265625 1.703125 7.734375 1.703125q4.484375 0 7.78125 -1.75q3.3125 -1.765625 5.390625 -4.59375q2.078125 -2.828125 3.09375 -6.453125q1.015625 -3.625 1.015625 -7.359375q0 -3.84375 -1.0625 -7.40625q-1.0625 -3.578125 -3.25 -6.296875q-2.1875 -2.71875 -5.453125 -4.375q-3.25 -1.65625 -7.609375 -1.65625q-4.484375 0 -7.75 1.71875q-3.25 1.703125 -5.390625 4.53125q-2.125 2.8125 -3.140625 6.390625q-1.0 3.578125 -1.0 7.3125zm64.62335 37.75l0 -75.71875l51.953125 0l0 18.125l-31.15625 0l0 12.578125l25.390625 0l0 16.859375l-25.390625 0l0 28.15625l-20.796875 0z" fill-rule="nonzero"/><path fill="#000000" fill-opacity="0.0" d="m32.72441 384.2933l894.55115 0l0 107.52756l-894.55115 0z" fill-rule="evenodd"/><path fill="#000000" d="m253.67311 426.82086l0 -165.65625l45.499985 0l0 125.984375l75.125 0l0 39.671875l-120.624985 0zm136.49693 0l0 -165.65625l45.5 0l0 165.65625l-45.5 0zm73.965 0l0 -165.65625l113.62503 0l0 39.65625l-68.12503 0l0 27.53125l55.53128 0l0 36.875l-55.53128 0l0 61.59375l-45.5 0zm249.4263 -39.671875l0 39.671875l-118.0625 0l0 -165.65625l115.96875 0l0 39.65625l-70.46875 0l0 23.328125l60.203125 0l0 36.875l-60.203125 0l0 26.125l72.5625 0z" fill-rule="nonzero"/></g></svg>