<svg version="1.1" viewBox="0.0 0.0 960.0 540.0" fill="none" stroke="none" stroke-linecap="square" stroke-miterlimit="10" xmlns:xlink="http://www.w3.org/1999/xlink" xmlns="http://www.w3.org/2000/svg"><clipPath id="g5e1fdac6f3_0_21.0"><path d="m0 0l960.0 0l0 540.0l-960.0 0l0 -540.0z" clip-rule="nonzero"/></clipPath><g clip-path="url(#g5e1fdac6f3_0_21.0)"><path fill="#ffffff" d="m0 0l960.0 0l0 540.0l-960.0 0z" fill-rule="evenodd"/><path fill="#000000" fill-opacity="0.0" d="m-199.27559 241.26407l894.55115 0l0 107.52756l-894.55115 0z" fill-rule="evenodd"/><path fill="#000000" d="m54.68904 283.7916l0 -165.65623l45.5 0l0 125.984375l75.125 0l0 39.67186l-120.625 0zm254.55943 -39.67186l0 39.67186l-118.062485 0l0 -165.65623l115.968735 0l0 39.65625l-70.468735 0l0 23.328125l60.20311 0l0 36.875l-60.20311 0l0 26.125l72.562485 0zm139.29684 0l0 39.67186l-118.0625 0l0 -165.65623l115.96875 0l0 39.65625l-70.46875 0l0 23.328125l60.203125 0l0 36.875l-60.203125 0l0 26.125l72.5625 0z" fill-rule="nonzero"/><path fill="#000000" fill-opacity="0.0" d="m-199.27559 348.6887l894.55115 0l0 78.04724l-894.55115 0z" fill-rule="evenodd"/><path fill="#000000" d="m111.37404 392.13593l0 -39.890625l-12.6875 28.046875l-11.09375 0l-12.703125 -28.046875l0 39.890625l-20.796875 0l0 -75.71875l22.71875 0l16.328125 35.609375l16.421875 -35.609375l22.609375 0l0 75.71875l-20.796875 0zm87.772 -18.125l0 18.125l-53.96875 0l0 -75.71875l53.015625 0l0 18.125l-32.21875 0l0 10.671875l27.53125 0l0 16.84375l-27.53125 0l0 11.953125l33.171875 0zm68.68941 -39.46875l-21.749985 0l0 57.59375l-20.796875 0l0 -57.59375l-21.875 0l0 -18.125l64.42186 0l0 18.125zm7.5691833 57.59375l0 -75.71875l34.78125 0q5.546875 0 10.234375 2.296875q4.6875 2.28125 8.046875 5.96875q3.359375 3.671875 5.28125 8.421875q1.921875 4.75 1.921875 9.546875q0 6.609375 -2.890625 12.3125q-2.875 5.703125 -7.984375 9.328125l16.0 27.84375l-23.46875 0l-13.328125 -23.25l-7.796875 0l0 23.25l-20.796875 0zm20.796875 -41.375l13.125 0q1.921875 0 3.578125 -2.140625q1.65625 -2.140625 1.65625 -5.96875q0 -3.953125 -1.921875 -6.03125q-1.921875 -2.078125 -3.84375 -2.078125l-12.59375 0l0 16.21875zm51.196106 41.375l0 -75.71875l20.796875 0l0 75.71875l-20.796875 0zm29.653809 -38.5q0 -6.9375 2.609375 -13.65625q2.625 -6.71875 7.625 -12.046875q5.015625 -5.34375 12.15625 -8.640625q7.15625 -3.3125 16.328125 -3.3125q10.984375 0 19.03125 4.53125q8.0625 4.53125 12.0 12.0l-15.890625 11.3125q-1.0625 -2.78125 -2.828125 -4.59375q-1.75 -1.8125 -3.890625 -2.875q-2.125 -1.0625 -4.421875 -1.484375q-2.296875 -0.4375 -4.421875 -0.4375q-4.484375 0 -7.734375 1.765625q-3.25 1.75 -5.34375 4.578125q-2.078125 2.828125 -3.09375 6.40625q-1.0 3.578125 -1.0 7.09375q0 3.9375 1.171875 7.5625q1.171875 3.625 3.40625 6.40625q2.25 2.765625 5.5 4.421875q3.25 1.65625 7.296875 1.65625q2.140625 0 4.375 -0.46875q2.25 -0.484375 4.328125 -1.609375q2.078125 -1.125 3.71875 -2.875q1.65625 -1.765625 2.625 -4.328125l16.953125 10.140625q-1.703125 4.15625 -5.171875 7.46875q-3.46875 3.296875 -7.890625 5.546875q-4.421875 2.234375 -9.5 3.40625q-5.0625 1.171875 -9.859375 1.171875q-8.421875 0 -15.40625 -3.359375q-6.984375 -3.359375 -12.0625 -8.90625q-5.0625 -5.546875 -7.84375 -12.578125q-2.765625 -7.046875 -2.765625 -14.296875z" fill-rule="nonzero"/><path fill="#000000" fill-opacity="0.0" d="m613.40375 249.90875l0 0c0 -53.02803 43.17102 -96.01575 96.42523 -96.01575l0 0c25.573547 0 50.09967 10.115921 68.18286 28.12236c18.083252 18.006454 28.24231 42.42842 28.24231 67.89339l0 0c0 53.028046 -43.17102 96.01575 -96.42517 96.01575l0 0c-53.25421 0 -96.42523 -42.9877 -96.42523 -96.01575z" fill-rule="evenodd"/><path stroke="#000000" stroke-width="4.0" stroke-linejoin="round" stroke-linecap="butt" d="m613.40375 249.90875l0 0c0 -53.02803 43.17102 -96.01575 96.42523 -96.01575l0 0c25.573547 0 50.09967 10.115921 68.18286 28.12236c18.083252 18.006454 28.24231 42.42842 28.24231 67.89339l0 0c0 53.028046 -43.17102 96.01575 -96.42517 96.01575l0 0c-53.25421 0 -96.42523 -42.9877 -96.42523 -96.01575z" fill-rule="evenodd"/><path fill="#000000" d="m628.9406 184.38402l0 0c0 -6.236038 5.3584595 -11.291351 11.968506 -11.291351l0 0c3.1742554 0 6.218506 1.189621 8.463013 3.3071594c2.2445068 2.1175385 3.5054932 4.9895325 3.5054932 7.984192l0 0c0 6.236023 -5.3584595 11.291336 -11.968506 11.291336l0 0c-6.6100464 0 -11.968506 -5.055313 -11.968506 -11.291336z" fill-rule="evenodd"/><path stroke="#595959" stroke-width="1.0" stroke-linejoin="round" stroke-linecap="butt" d="m628.9406 184.38402l0 0c0 -6.236038 5.3584595 -11.291351 11.968506 -11.291351l0 0c3.1742554 0 6.218506 1.189621 8.463013 3.3071594c2.2445068 2.1175385 3.5054932 4.9895325 3.5054932 7.984192l0 0c0 6.236023 -5.3584595 11.291336 -11.968506 11.291336l0 0c-6.6100464 0 -11.968506 -5.055313 -11.968506 -11.291336z" fill-rule="evenodd"/><path fill="#000000" d="m766.7608 184.38402l0 0c0 -6.236038 5.3585205 -11.291351 11.968506 -11.291351l0 0c3.1742554 0 6.218506 1.189621 8.463013 3.3071594c2.2445679 2.1175385 3.5054932 4.9895325 3.5054932 7.984192l0 0c0 6.236023 -5.3584595 11.291336 -11.968506 11.291336l0 0c-6.6099854 0 -11.968506 -5.055313 -11.968506 -11.291336z" fill-rule="evenodd"/><path stroke="#595959" stroke-width="1.0" stroke-linejoin="round" stroke-linecap="butt" d="m766.7608 184.38402l0 0c0 -6.236038 5.3585205 -11.291351 11.968506 -11.291351l0 0c3.1742554 0 6.218506 1.189621 8.463013 3.3071594c2.2445679 2.1175385 3.5054932 4.9895325 3.5054932 7.984192l0 0c0 6.236023 -5.3584595 11.291336 -11.968506 11.291336l0 0c-6.6099854 0 -11.968506 -5.055313 -11.968506 -11.291336z" fill-rule="evenodd"/><path fill="#000000" d="m697.8507 155.42688l0 0c0 -6.236038 5.3585205 -11.291351 11.968506 -11.291351l0 0c3.1742554 0 6.218506 1.189621 8.463013 3.3071594c2.2445068 2.1175385 3.5054932 4.9895325 3.5054932 7.984192l0 0c0 6.236023 -5.3584595 11.291336 -11.968506 11.291336l0 0c-6.6099854 0 -11.968506 -5.055313 -11.968506 -11.291336z" fill-rule="evenodd"/><path stroke="#595959" stroke-width="1.0" stroke-linejoin="round" stroke-linecap="butt" d="m697.8507 155.42688l0 0c0 -6.236038 5.3585205 -11.291351 11.968506 -11.291351l0 0c3.1742554 0 6.218506 1.189621 8.463013 3.3071594c2.2445068 2.1175385 3.5054932 4.9895325 3.5054932 7.984192l0 0c0 6.236023 -5.3584595 11.291336 -11.968506 11.291336l0 0c-6.6099854 0 -11.968506 -5.055313 -11.968506 -11.291336z" fill-rule="evenodd"/><path fill="#000000" d="m697.85724 344.3866l0 0c0 -6.236023 5.3584595 -11.291321 11.968506 -11.291321l0 0c3.1741943 0 6.218445 1.1896057 8.463013 3.307129c2.2445068 2.1175537 3.5054932 4.9895325 3.5054932 7.984192l0 0c0 6.236023 -5.3585205 11.291351 -11.968506 11.291351l0 0c-6.6100464 0 -11.968506 -5.0553284 -11.968506 -11.291351z" fill-rule="evenodd"/><path stroke="#595959" stroke-width="1.0" stroke-linejoin="round" stroke-linecap="butt" d="m697.85724 344.3866l0 0c0 -6.236023 5.3584595 -11.291321 11.968506 -11.291321l0 0c3.1741943 0 6.218445 1.1896057 8.463013 3.307129c2.2445068 2.1175537 3.5054932 4.9895325 3.5054932 7.984192l0 0c0 6.236023 -5.3585205 11.291351 -11.968506 11.291351l0 0c-6.6100464 0 -11.968506 -5.0553284 -11.968506 -11.291351z" fill-rule="evenodd"/><path fill="#000000" d="m628.9406 315.42303l0 0c0 -6.2360535 5.3584595 -11.291351 11.968506 -11.291351l0 0c3.1742554 0 6.218506 1.1896362 8.463013 3.3071594c2.2445068 2.1175232 3.5054932 4.9895325 3.5054932 7.984192l0 0c0 6.236023 -5.3584595 11.291321 -11.968506 11.291321l0 0c-6.6100464 0 -11.968506 -5.055298 -11.968506 -11.291321z" fill-rule="evenodd"/><path stroke="#595959" stroke-width="1.0" stroke-linejoin="round" stroke-linecap="butt" d="m628.9406 315.42303l0 0c0 -6.2360535 5.3584595 -11.291351 11.968506 -11.291351l0 0c3.1742554 0 6.218506 1.1896362 8.463013 3.3071594c2.2445068 2.1175232 3.5054932 4.9895325 3.5054932 7.984192l0 0c0 6.236023 -5.3584595 11.291321 -11.968506 11.291321l0 0c-6.6100464 0 -11.968506 -5.055298 -11.968506 -11.291321z" fill-rule="evenodd"/><path fill="#000000" d="m766.7608 315.42303l0 0c0 -6.2360535 5.3585205 -11.291351 11.968506 -11.291351l0 0c3.1742554 0 6.218506 1.1896362 8.463013 3.3071594c2.2445679 2.1175232 3.5054932 4.9895325 3.5054932 7.984192l0 0c0 6.236023 -5.3584595 11.291321 -11.968506 11.291321l0 0c-6.6099854 0 -11.968506 -5.055298 -11.968506 -11.291321z" fill-rule="evenodd"/><path stroke="#595959" stroke-width="1.0" stroke-linejoin="round" stroke-linecap="butt" d="m766.7608 315.42303l0 0c0 -6.2360535 5.3585205 -11.291351 11.968506 -11.291351l0 0c3.1742554 0 6.218506 1.1896362 8.463013 3.3071594c2.2445679 2.1175232 3.5054932 4.9895325 3.5054932 7.984192l0 0c0 6.236023 -5.3584595 11.291321 -11.968506 11.291321l0 0c-6.6099854 0 -11.968506 -5.055298 -11.968506 -11.291321z" fill-rule="evenodd"/><path fill="#000000" d="m604.99677 249.9003l0 0c0 -6.236038 5.3584595 -11.291336 11.968506 -11.291336l0 0c3.1742554 0 6.218445 1.189621 8.463013 3.3071594c2.2445068 2.1175385 3.5054932 4.9895325 3.5054932 7.9841766l0 0c0 6.236023 -5.3585205 11.291351 -11.968506 11.291351l0 0c-6.6100464 0 -11.968506 -5.0553284 -11.968506 -11.291351z" fill-rule="evenodd"/><path stroke="#595959" stroke-width="1.0" stroke-linejoin="round" stroke-linecap="butt" d="m604.99677 249.9003l0 0c0 -6.236038 5.3584595 -11.291336 11.968506 -11.291336l0 0c3.1742554 0 6.218445 1.189621 8.463013 3.3071594c2.2445068 2.1175385 3.5054932 4.9895325 3.5054932 7.9841766l0 0c0 6.236023 -5.3585205 11.291351 -11.968506 11.291351l0 0c-6.6100464 0 -11.968506 -5.0553284 -11.968506 -11.291351z" fill-rule="evenodd"/><path fill="#000000" d="m795.9497 249.9003l0 0c0 -6.236038 5.3584595 -11.291336 11.968506 -11.291336l0 0c3.1742554 0 6.218506 1.189621 8.463013 3.3071594c2.2445068 2.1175385 3.5054932 4.9895325 3.5054932 7.9841766l0 0c0 6.236023 -5.3584595 11.291351 -11.968506 11.291351l0 0c-6.6100464 0 -11.968506 -5.0553284 -11.968506 -11.291351z" fill-rule="evenodd"/><path stroke="#595959" stroke-width="1.0" stroke-linejoin="round" stroke-linecap="butt" d="m795.9497 249.9003l0 0c0 -6.236038 5.3584595 -11.291336 11.968506 -11.291336l0 0c3.1742554 0 6.218506 1.189621 8.463013 3.3071594c2.2445068 2.1175385 3.5054932 4.9895325 3.5054932 7.9841766l0 0c0 6.236023 -5.3584595 11.291351 -11.968506 11.291351l0 0c-6.6100464 0 -11.968506 -5.0553284 -11.968506 -11.291351z" fill-rule="evenodd"/><path fill="#000000" fill-opacity="0.0" d="m688.7239 79.03934l42.204773 0l0 39.338577l-42.204773 0z" fill-rule="evenodd"/><path fill="#000000" d="m715.8958 104.04809q0 1.578125 -0.453125 2.921875q-0.453125 1.328125 -1.28125 2.296875q-0.8125 0.96875 -1.9375 1.515625q-1.109375 0.53125 -2.390625 0.53125q-1.328125 0 -2.453125 -0.53125q-1.109375 -0.546875 -1.921875 -1.515625q-0.796875 -0.96875 -1.25 -2.296875q-0.453125 -1.34375 -0.453125 -2.921875q0 -1.578125 0.453125 -2.90625q0.453125 -1.34375 1.25 -2.3125q0.8125 -0.96875 1.921875 -1.515625q1.125 -0.5625 2.453125 -0.5625q1.28125 0 2.390625 0.5625q1.125 0.546875 1.9375 1.515625q0.828125 0.96875 1.28125 2.3125q0.453125 1.328125 0.453125 2.90625zm-2.140625 0q0 -1.171875 -0.28125 -2.15625q-0.28125 -0.984375 -0.8125 -1.6875q-0.53125 -0.71875 -1.25 -1.09375q-0.71875 -0.390625 -1.578125 -0.390625q-0.890625 0 -1.625 0.390625q-0.734375 0.375 -1.25 1.09375q-0.515625 0.703125 -0.8125 1.6875q-0.28125 0.984375 -0.28125 2.15625q0 1.203125 0.28125 2.171875q0.296875 0.96875 0.8125 1.671875q0.515625 0.6875 1.25 1.078125q0.734375 0.375 1.625 0.375q0.859375 0 1.578125 -0.375q0.71875 -0.390625 1.25 -1.078125q0.53125 -0.703125 0.8125 -1.671875q0.28125 -0.96875 0.28125 -2.171875z" fill-rule="nonzero"/><path fill="#000000" fill-opacity="0.0" d="m795.9497 135.7582l42.204712 0l0 39.338593l-42.204712 0z" fill-rule="evenodd"/><path fill="#000000" d="m821.87085 165.87633l0 1.921875l-8.609375 0l0 -1.921875l3.40625 0l0 -9.359375q-0.21875 0.296875 -0.671875 0.625q-0.453125 0.3125 -1.015625 0.59375q-0.5625 0.265625 -1.171875 0.46875q-0.59375 0.1875 -1.046875 0.1875l0 -2.015625q0.515625 0 1.15625 -0.296875q0.65625 -0.3125 1.25 -0.703125q0.59375 -0.390625 1.0 -0.765625q0.421875 -0.375 0.5 -0.515625l2.15625 0l0 11.78125l3.046875 0z" fill-rule="nonzero"/><path fill="#000000" fill-opacity="0.0" d="m571.20953 135.7582l42.204712 0l0 39.338593l-42.204712 0z" fill-rule="evenodd"/><path fill="#000000" d="m597.1307 165.87633l0 1.921875l-8.609375 0l0 -1.921875l3.40625 0l0 -9.359375q-0.21875 0.296875 -0.671875 0.625q-0.453125 0.3125 -1.015625 0.59375q-0.5625 0.265625 -1.171875 0.46875q-0.59375 0.1875 -1.046875 0.1875l0 -2.015625q0.515625 0 1.15625 -0.296875q0.65625 -0.3125 1.25 -0.703125q0.59375 -0.390625 1.0 -0.765625q0.421875 -0.375 0.5 -0.515625l2.15625 0l0 11.78125l3.046875 0z" fill-rule="nonzero"/><path fill="#000000" fill-opacity="0.0" d="m539.3071 222.23485l42.204712 0l0 39.338577l-42.204712 0z" fill-rule="evenodd"/><path fill="#000000" d="m555.02075 254.27484q0 -0.953125 0.15625 -1.796875q0.15625 -0.84375 0.578125 -1.609375q0.4375 -0.765625 1.1875 -1.453125q0.765625 -0.703125 1.984375 -1.40625q0.71875 -0.375 1.46875 -0.75q0.75 -0.375 1.359375 -0.796875q0.609375 -0.421875 1.0 -0.890625q0.40625 -0.484375 0.40625 -1.140625q0 -0.40625 -0.203125 -0.8125q-0.1875 -0.40625 -0.546875 -0.71875q-0.359375 -0.3125 -0.90625 -0.5q-0.53125 -0.203125 -1.234375 -0.203125q-0.71875 0 -1.3125 0.21875q-0.578125 0.203125 -1.03125 0.5q-0.453125 0.296875 -0.796875 0.640625q-0.328125 0.328125 -0.546875 0.59375l-1.375 -1.53125q0.203125 -0.21875 0.65625 -0.59375q0.453125 -0.375 1.140625 -0.75q0.703125 -0.390625 1.609375 -0.65625q0.921875 -0.28125 2.046875 -0.28125q1.109375 0 1.984375 0.296875q0.890625 0.296875 1.5 0.828125q0.625 0.53125 0.953125 1.234375q0.34375 0.703125 0.34375 1.5q0 0.9375 -0.421875 1.640625q-0.40625 0.6875 -1.0 1.21875q-0.578125 0.515625 -1.25 0.890625q-0.671875 0.375 -1.203125 0.640625q-0.515625 0.265625 -1.1875 0.640625q-0.65625 0.359375 -1.265625 0.828125q-0.59375 0.46875 -1.046875 1.046875q-0.4375 0.578125 -0.546875 1.25l8.1875 0l0 1.921875l-10.6875 0z" fill-rule="nonzero"/><path fill="#000000" fill-opacity="0.0" d="m846.14655 222.23485l42.204773 0l0 39.338577l-42.204773 0z" fill-rule="evenodd"/><path fill="#000000" d="m861.8602 254.27484q0 -0.953125 0.15625 -1.796875q0.15625 -0.84375 0.578125 -1.609375q0.4375 -0.765625 1.1875 -1.453125q0.765625 -0.703125 1.984375 -1.40625q0.71875 -0.375 1.46875 -0.75q0.75 -0.375 1.359375 -0.796875q0.609375 -0.421875 1.0 -0.890625q0.40625 -0.484375 0.40625 -1.140625q0 -0.40625 -0.203125 -0.8125q-0.1875 -0.40625 -0.546875 -0.71875q-0.359375 -0.3125 -0.90625 -0.5q-0.53125 -0.203125 -1.234375 -0.203125q-0.71875 0 -1.3125 0.21875q-0.578125 0.203125 -1.03125 0.5q-0.453125 0.296875 -0.796875 0.640625q-0.328125 0.328125 -0.546875 0.59375l-1.375 -1.53125q0.203125 -0.21875 0.65625 -0.59375q0.453125 -0.375 1.140625 -0.75q0.703125 -0.390625 1.609375 -0.65625q0.921875 -0.28125 2.046875 -0.28125q1.109375 0 1.984375 0.296875q0.890625 0.296875 1.5 0.828125q0.625 0.53125 0.953125 1.234375q0.34375 0.703125 0.34375 1.5q0 0.9375 -0.421875 1.640625q-0.40625 0.6875 -1.0 1.21875q-0.578125 0.515625 -1.25 0.890625q-0.671875 0.375 -1.203125 0.640625q-0.515625 0.265625 -1.1875 0.640625q-0.65625 0.359375 -1.265625 0.828125q-0.59375 0.46875 -1.046875 1.046875q-0.4375 0.578125 -0.546875 1.25l8.1875 0l0 1.921875l-10.6875 0z" fill-rule="nonzero"/><path fill="#000000" fill-opacity="0.0" d="m795.9497 324.7115l42.204712 0l0 39.338593l-42.204712 0z" fill-rule="evenodd"/><path fill="#000000" d="m819.16583 351.09525q1.53125 0.25 2.421875 1.40625q0.90625 1.15625 0.90625 2.859375q0 1.109375 -0.40625 2.015625q-0.40625 0.90625 -1.171875 1.546875q-0.75 0.65625 -1.8125 1.0q-1.046875 0.359375 -2.34375 0.359375q-1.8125 0 -3.203125 -0.6875q-1.375 -0.6875 -2.140625 -1.9375l1.40625 -1.40625q0.5625 0.984375 1.5 1.546875q0.9375 0.5625 2.4375 0.5625q1.65625 0 2.609375 -0.75q0.953125 -0.734375 0.953125 -2.25q0 -1.515625 -1.03125 -2.40625q-1.015625 -0.90625 -2.953125 -0.90625l-0.625 0l0 -1.78125l0.671875 0q1.71875 0 2.640625 -0.828125q0.9375 -0.828125 0.9375 -2.09375q0 -1.28125 -0.890625 -1.890625q-0.890625 -0.625 -2.234375 -0.625q-1.328125 0 -2.328125 0.5625q-0.984375 0.5625 -1.53125 1.5625l-1.296875 -1.34375q0.3125 -0.59375 0.84375 -1.078125q0.546875 -0.5 1.25 -0.859375q0.703125 -0.359375 1.53125 -0.546875q0.828125 -0.203125 1.75 -0.203125q1.125 0 2.0625 0.3125q0.953125 0.3125 1.640625 0.875q0.6875 0.546875 1.046875 1.34375q0.375 0.78125 0.375 1.75q0 0.71875 -0.203125 1.375q-0.203125 0.640625 -0.59375 1.171875q-0.390625 0.515625 -0.96875 0.875q-0.5625 0.34375 -1.25 0.46875z" fill-rule="nonzero"/><path fill="#000000" fill-opacity="0.0" d="m571.20953 326.09164l42.204712 0l0 39.338562l-42.204712 0z" fill-rule="evenodd"/><path fill="#000000" d="m594.42566 352.47537q1.53125 0.25 2.421875 1.40625q0.90625 1.15625 0.90625 2.859375q0 1.109375 -0.40625 2.015625q-0.40625 0.90625 -1.171875 1.546875q-0.75 0.65625 -1.8125 1.0q-1.046875 0.359375 -2.34375 0.359375q-1.8125 0 -3.203125 -0.6875q-1.375 -0.6875 -2.140625 -1.9375l1.40625 -1.40625q0.5625 0.984375 1.5 1.546875q0.9375 0.5625 2.4375 0.5625q1.65625 0 2.609375 -0.75q0.953125 -0.734375 0.953125 -2.25q0 -1.515625 -1.03125 -2.40625q-1.015625 -0.90625 -2.953125 -0.90625l-0.625 0l0 -1.78125l0.671875 0q1.71875 0 2.640625 -0.828125q0.9375 -0.828125 0.9375 -2.09375q0 -1.28125 -0.890625 -1.890625q-0.890625 -0.625 -2.234375 -0.625q-1.328125 0 -2.328125 0.5625q-0.984375 0.5625 -1.53125 1.5625l-1.296875 -1.34375q0.3125 -0.59375 0.84375 -1.078125q0.546875 -0.5 1.25 -0.859375q0.703125 -0.359375 1.53125 -0.546875q0.828125 -0.203125 1.75 -0.203125q1.125 0 2.0625 0.3125q0.953125 0.3125 1.640625 0.875q0.6875 0.546875 1.046875 1.34375q0.375 0.78125 0.375 1.75q0 0.71875 -0.203125 1.375q-0.203125 0.640625 -0.59375 1.171875q-0.390625 0.515625 -0.96875 0.875q-0.5625 0.34375 -1.25 0.46875z" fill-rule="nonzero"/><path fill="#000000" fill-opacity="0.0" d="m688.7255 373.43036l42.204712 0l0 39.338593l-42.204712 0z" fill-rule="evenodd"/><path fill="#000000" d="m711.41315 408.51724l0 -4.0625l-7.703125 0l0 -1.859375l8.375 -10.828125l1.4375 0l0 10.78125l2.109375 0l0 1.90625l-2.109375 0l0 4.0625l-2.109375 0zm-5.515625 -5.96875l5.734375 0l0 -7.515625l-5.734375 7.515625z" fill-rule="nonzero"/></g></svg>